<mxfile host="65bd71144e" modified="2020-11-28T15:19:58.991Z" agent="5.0 (Macintosh; Intel Mac OS X 10_15_7) AppleWebKit/537.36 (KHTML, like Gecko) Code/1.51.1 Chrome/83.0.4103.122 Electron/9.3.3 Safari/537.36" etag="xXtaeP_27te_EJ0UECl4" version="13.6.5" pages="7">
    <diagram name="MainPage" id="2cc2dc42-3aac-f2a9-1cec-7a8b7cbee084">
        <mxGraphModel dx="378" dy="287" grid="1" gridSize="10" guides="1" tooltips="1" connect="1" arrows="1" fold="1" page="1" pageScale="1" pageWidth="1100" pageHeight="850" background="#ffffff" math="0" shadow="0">
            <root>
                <mxCell id="0"/>
                <mxCell id="1" parent="0"/>
                <mxCell id="7026571954dc6520-1" value="" style="strokeWidth=1;shadow=0;dashed=0;align=center;html=1;shape=mxgraph.mockup.containers.browserWindow;rSize=0;strokeColor=#666666;mainText=,;recursiveResize=0;rounded=0;labelBackgroundColor=none;fontFamily=Verdana;fontSize=12" parent="1" vertex="1">
                    <mxGeometry x="10" y="200" width="1050" height="620" as="geometry"/>
                </mxCell>
                <mxCell id="7026571954dc6520-2" value="Page 1" style="strokeWidth=1;shadow=0;dashed=0;align=center;html=1;shape=mxgraph.mockup.containers.anchor;fontSize=17;fontColor=#666666;align=left;" parent="7026571954dc6520-1" vertex="1">
                    <mxGeometry x="60" y="12" width="110" height="26" as="geometry"/>
                </mxCell>
                <mxCell id="7026571954dc6520-3" value="http://localhost:5000/" style="strokeWidth=1;shadow=0;dashed=0;align=center;html=1;shape=mxgraph.mockup.containers.anchor;rSize=0;fontSize=17;fontColor=#666666;align=left;" parent="7026571954dc6520-1" vertex="1">
                    <mxGeometry x="130" y="60" width="250" height="26" as="geometry"/>
                </mxCell>
                <mxCell id="7026571954dc6520-4" value="Photo locations" style="text;html=1;points=[];align=left;verticalAlign=top;spacingTop=-4;fontSize=30;fontFamily=Verdana" parent="7026571954dc6520-1" vertex="1">
                    <mxGeometry x="10" y="110" width="250" height="50" as="geometry"/>
                </mxCell>
                <mxCell id="7026571954dc6520-14" value="Search" style="strokeWidth=1;shadow=0;dashed=0;align=center;html=1;shape=mxgraph.mockup.forms.searchBox;strokeColor=#999999;mainText=;strokeColor2=#008cff;fontColor=#666666;fontSize=17;align=left;spacingLeft=3;rounded=0;labelBackgroundColor=none;" parent="7026571954dc6520-1" vertex="1">
                    <mxGeometry x="820" y="120" width="220" height="30" as="geometry"/>
                </mxCell>
                <mxCell id="7026571954dc6520-15" value="" style="verticalLabelPosition=bottom;shadow=0;dashed=0;align=center;html=1;verticalAlign=top;strokeWidth=1;shape=mxgraph.mockup.markup.line;strokeColor=#999999;rounded=0;labelBackgroundColor=none;fillColor=#ffffff;fontFamily=Verdana;fontSize=12;fontColor=#000000;" parent="7026571954dc6520-1" vertex="1">
                    <mxGeometry y="150" width="1050" height="20" as="geometry"/>
                </mxCell>
                <mxCell id="7026571954dc6520-21" value="" style="verticalLabelPosition=bottom;shadow=0;dashed=0;align=center;html=1;verticalAlign=top;strokeWidth=1;shape=mxgraph.mockup.markup.line;strokeColor=#999999;rounded=0;labelBackgroundColor=none;fillColor=#ffffff;fontFamily=Verdana;fontSize=12;fontColor=#000000;" parent="7026571954dc6520-1" vertex="1">
                    <mxGeometry y="580" width="1050" height="20" as="geometry"/>
                </mxCell>
                <mxCell id="ho5N0EGIrkVibda4BnWS-8" value="" style="strokeWidth=1;shadow=0;dashed=0;align=center;html=1;shape=mxgraph.mockup.rrect;rSize=10;fillColor=#ffffff;strokeColor=#666666;" parent="7026571954dc6520-1" vertex="1">
                    <mxGeometry x="410" y="120" width="385" height="30" as="geometry"/>
                </mxCell>
                <mxCell id="ho5N0EGIrkVibda4BnWS-9" value="Edit" style="strokeColor=inherit;fillColor=inherit;gradientColor=inherit;strokeWidth=1;shadow=0;dashed=0;align=center;html=1;shape=mxgraph.mockup.rrect;rSize=0;fontSize=17;fontColor=#666666;fontStyle=1;resizeHeight=1;" parent="ho5N0EGIrkVibda4BnWS-8" vertex="1">
                    <mxGeometry width="125" height="30" relative="1" as="geometry">
                        <mxPoint x="125" as="offset"/>
                    </mxGeometry>
                </mxCell>
                <mxCell id="ho5N0EGIrkVibda4BnWS-10" value="View" style="strokeColor=inherit;fillColor=inherit;gradientColor=inherit;strokeWidth=1;shadow=0;dashed=0;align=center;html=1;shape=mxgraph.mockup.rrect;rSize=0;fontSize=17;fontColor=#666666;fontStyle=1;resizeHeight=1;" parent="ho5N0EGIrkVibda4BnWS-8" vertex="1">
                    <mxGeometry width="125" height="30" relative="1" as="geometry">
                        <mxPoint x="250" as="offset"/>
                    </mxGeometry>
                </mxCell>
                <mxCell id="ho5N0EGIrkVibda4BnWS-12" value="Add" style="strokeWidth=1;shadow=0;dashed=0;align=center;html=1;shape=mxgraph.mockup.leftButton;rSize=10;fontSize=17;fontColor=#ffffff;fontStyle=1;fillColor=#008cff;strokeColor=#FFFFFF;resizeHeight=1;" parent="ho5N0EGIrkVibda4BnWS-8" vertex="1">
                    <mxGeometry width="125" height="30" relative="1" as="geometry"/>
                </mxCell>
                <mxCell id="EcFIrvqZcWwOEAq92eXp-11" value="" style="shape=table;html=1;whiteSpace=wrap;startSize=0;container=1;collapsible=0;childLayout=tableLayout;" parent="7026571954dc6520-1" vertex="1">
                    <mxGeometry x="30" y="180" width="990" height="390" as="geometry"/>
                </mxCell>
                <mxCell id="EcFIrvqZcWwOEAq92eXp-12" value="" style="shape=partialRectangle;html=1;whiteSpace=wrap;collapsible=0;dropTarget=0;pointerEvents=0;fillColor=none;top=0;left=0;bottom=0;right=0;points=[[0,0.5],[1,0.5]];portConstraint=eastwest;" parent="EcFIrvqZcWwOEAq92eXp-11" vertex="1">
                    <mxGeometry width="990" height="130" as="geometry"/>
                </mxCell>
                <mxCell id="EcFIrvqZcWwOEAq92eXp-13" value="Location 1 (Randomly selected)&lt;br&gt;Country: &amp;lt;name&amp;gt;&lt;br&gt;Continent: &amp;lt;name&amp;gt;&lt;br&gt;&lt;br&gt;Background: photo from location (if exists)" style="shape=partialRectangle;html=1;whiteSpace=wrap;connectable=0;fillColor=none;top=0;left=0;bottom=0;right=0;overflow=hidden;" parent="EcFIrvqZcWwOEAq92eXp-12" vertex="1">
                    <mxGeometry width="330" height="130" as="geometry"/>
                </mxCell>
                <mxCell id="EcFIrvqZcWwOEAq92eXp-14" value="Location 2 (Randomly selected)&lt;br&gt;Country: &amp;lt;name&amp;gt;&lt;br&gt;Continent: &amp;lt;name&amp;gt;&lt;br&gt;&lt;br&gt;Background: photo from location (if exists)" style="shape=partialRectangle;html=1;whiteSpace=wrap;connectable=0;fillColor=none;top=0;left=0;bottom=0;right=0;overflow=hidden;" parent="EcFIrvqZcWwOEAq92eXp-12" vertex="1">
                    <mxGeometry x="330" width="330" height="130" as="geometry"/>
                </mxCell>
                <mxCell id="EcFIrvqZcWwOEAq92eXp-15" value="&lt;span&gt;Location 3 (Randomly selected)&lt;/span&gt;&lt;br&gt;&lt;span&gt;Country: &amp;lt;name&amp;gt;&lt;/span&gt;&lt;br&gt;&lt;span&gt;Continent: &amp;lt;name&amp;gt;&lt;/span&gt;&lt;br&gt;&lt;br&gt;&lt;span&gt;Background: photo from location (if exists)&lt;/span&gt;" style="shape=partialRectangle;html=1;whiteSpace=wrap;connectable=0;fillColor=none;top=0;left=0;bottom=0;right=0;overflow=hidden;" parent="EcFIrvqZcWwOEAq92eXp-12" vertex="1">
                    <mxGeometry x="660" width="330" height="130" as="geometry"/>
                </mxCell>
                <mxCell id="EcFIrvqZcWwOEAq92eXp-16" value="" style="shape=partialRectangle;html=1;whiteSpace=wrap;collapsible=0;dropTarget=0;pointerEvents=0;fillColor=none;top=0;left=0;bottom=0;right=0;points=[[0,0.5],[1,0.5]];portConstraint=eastwest;" parent="EcFIrvqZcWwOEAq92eXp-11" vertex="1">
                    <mxGeometry y="130" width="990" height="130" as="geometry"/>
                </mxCell>
                <mxCell id="EcFIrvqZcWwOEAq92eXp-17" value="&lt;span&gt;Location 4 (Randomly selected)&lt;/span&gt;&lt;br&gt;&lt;span&gt;Country: &amp;lt;name&amp;gt;&lt;/span&gt;&lt;br&gt;&lt;span&gt;Continent: &amp;lt;name&amp;gt;&lt;/span&gt;&lt;br&gt;&lt;br&gt;&lt;span&gt;Background: photo from location (if exists)&lt;/span&gt;" style="shape=partialRectangle;html=1;whiteSpace=wrap;connectable=0;fillColor=none;top=0;left=0;bottom=0;right=0;overflow=hidden;" parent="EcFIrvqZcWwOEAq92eXp-16" vertex="1">
                    <mxGeometry width="330" height="130" as="geometry"/>
                </mxCell>
                <mxCell id="EcFIrvqZcWwOEAq92eXp-18" value="&lt;span&gt;Location 5 (Randomly selected)&lt;/span&gt;&lt;br&gt;&lt;span&gt;Country: &amp;lt;name&amp;gt;&lt;/span&gt;&lt;br&gt;&lt;span&gt;Continent: &amp;lt;name&amp;gt;&lt;/span&gt;&lt;br&gt;&lt;br&gt;&lt;span&gt;Background: photo from location (if exists)&lt;/span&gt;" style="shape=partialRectangle;html=1;whiteSpace=wrap;connectable=0;fillColor=none;top=0;left=0;bottom=0;right=0;overflow=hidden;" parent="EcFIrvqZcWwOEAq92eXp-16" vertex="1">
                    <mxGeometry x="330" width="330" height="130" as="geometry"/>
                </mxCell>
                <mxCell id="EcFIrvqZcWwOEAq92eXp-19" value="&lt;span&gt;Location 6 (Randomly selected)&lt;/span&gt;&lt;br&gt;&lt;span&gt;Country: &amp;lt;name&amp;gt;&lt;/span&gt;&lt;br&gt;&lt;span&gt;Continent: &amp;lt;name&amp;gt;&lt;/span&gt;&lt;br&gt;&lt;br&gt;&lt;span&gt;Background: photo from location (if exists)&lt;/span&gt;" style="shape=partialRectangle;html=1;whiteSpace=wrap;connectable=0;fillColor=none;top=0;left=0;bottom=0;right=0;overflow=hidden;" parent="EcFIrvqZcWwOEAq92eXp-16" vertex="1">
                    <mxGeometry x="660" width="330" height="130" as="geometry"/>
                </mxCell>
                <mxCell id="EcFIrvqZcWwOEAq92eXp-20" value="" style="shape=partialRectangle;html=1;whiteSpace=wrap;collapsible=0;dropTarget=0;pointerEvents=0;fillColor=none;top=0;left=0;bottom=0;right=0;points=[[0,0.5],[1,0.5]];portConstraint=eastwest;" parent="EcFIrvqZcWwOEAq92eXp-11" vertex="1">
                    <mxGeometry y="260" width="990" height="130" as="geometry"/>
                </mxCell>
                <mxCell id="EcFIrvqZcWwOEAq92eXp-21" value="&lt;span&gt;Location 7 (Randomly selected)&lt;/span&gt;&lt;br&gt;&lt;span&gt;Country: &amp;lt;name&amp;gt;&lt;/span&gt;&lt;br&gt;&lt;span&gt;Continent: &amp;lt;name&amp;gt;&lt;/span&gt;&lt;br&gt;&lt;br&gt;&lt;span&gt;Background: photo from location (if exists)&lt;/span&gt;" style="shape=partialRectangle;html=1;whiteSpace=wrap;connectable=0;fillColor=none;top=0;left=0;bottom=0;right=0;overflow=hidden;" parent="EcFIrvqZcWwOEAq92eXp-20" vertex="1">
                    <mxGeometry width="330" height="130" as="geometry"/>
                </mxCell>
                <mxCell id="EcFIrvqZcWwOEAq92eXp-22" value="&lt;span&gt;Location 8 (Randomly selected)&lt;/span&gt;&lt;br&gt;&lt;span&gt;Country: &amp;lt;name&amp;gt;&lt;/span&gt;&lt;br&gt;&lt;span&gt;Continent: &amp;lt;name&amp;gt;&lt;/span&gt;&lt;br&gt;&lt;br&gt;&lt;span&gt;Background: photo from location (if exists)&lt;/span&gt;" style="shape=partialRectangle;html=1;whiteSpace=wrap;connectable=0;fillColor=none;top=0;left=0;bottom=0;right=0;overflow=hidden;" parent="EcFIrvqZcWwOEAq92eXp-20" vertex="1">
                    <mxGeometry x="330" width="330" height="130" as="geometry"/>
                </mxCell>
                <mxCell id="EcFIrvqZcWwOEAq92eXp-23" value="&lt;span&gt;Location 9 (Randomly selected)&lt;/span&gt;&lt;br&gt;&lt;span&gt;Country: &amp;lt;name&amp;gt;&lt;/span&gt;&lt;br&gt;&lt;span&gt;Continent: &amp;lt;name&amp;gt;&lt;/span&gt;&lt;br&gt;&lt;br&gt;&lt;span&gt;Background: photo from location (if exists)&lt;/span&gt;" style="shape=partialRectangle;html=1;whiteSpace=wrap;connectable=0;fillColor=none;top=0;left=0;bottom=0;right=0;overflow=hidden;" parent="EcFIrvqZcWwOEAq92eXp-20" vertex="1">
                    <mxGeometry x="660" width="330" height="130" as="geometry"/>
                </mxCell>
                <mxCell id="EcFIrvqZcWwOEAq92eXp-24" value="Copyrights Aberdeenshire UK 2020. All Rights Reserved" style="text;html=1;strokeColor=none;fillColor=none;align=center;verticalAlign=middle;whiteSpace=wrap;rounded=0;" parent="7026571954dc6520-1" vertex="1">
                    <mxGeometry y="590" width="1050" height="30" as="geometry"/>
                </mxCell>
                <mxCell id="zf-75fk2GMf-mPQKy3On-3" value="&lt;font style=&quot;font-size: 72px&quot;&gt;Main page&lt;/font&gt;" style="text;html=1;strokeColor=none;fillColor=none;align=center;verticalAlign=middle;whiteSpace=wrap;rounded=0;" parent="1" vertex="1">
                    <mxGeometry x="210" y="90" width="720" height="110" as="geometry"/>
                </mxCell>
            </root>
        </mxGraphModel>
    </diagram>
    <diagram id="LgyxDLVkFJSRYy0mtACo" name="Navigation menu options">
        <mxGraphModel dx="378" dy="287" grid="1" gridSize="10" guides="1" tooltips="1" connect="1" arrows="1" fold="1" page="1" pageScale="1" pageWidth="827" pageHeight="1169" math="0" shadow="0">
            <root>
                <mxCell id="ziD7xMIUt8b3zbC6FGtw-0"/>
                <mxCell id="ziD7xMIUt8b3zbC6FGtw-1" parent="ziD7xMIUt8b3zbC6FGtw-0"/>
                <mxCell id="IcfBapx624i29WFodWo8-0" value="" style="strokeWidth=1;shadow=0;dashed=0;align=center;html=1;shape=mxgraph.mockup.containers.browserWindow;rSize=0;strokeColor=#666666;mainText=,;recursiveResize=0;rounded=0;labelBackgroundColor=none;fontFamily=Verdana;fontSize=12" parent="ziD7xMIUt8b3zbC6FGtw-1" vertex="1">
                    <mxGeometry x="10" y="140" width="1050" height="620" as="geometry"/>
                </mxCell>
                <mxCell id="IcfBapx624i29WFodWo8-1" value="Page 1" style="strokeWidth=1;shadow=0;dashed=0;align=center;html=1;shape=mxgraph.mockup.containers.anchor;fontSize=17;fontColor=#666666;align=left;" parent="IcfBapx624i29WFodWo8-0" vertex="1">
                    <mxGeometry x="60" y="12" width="110" height="26" as="geometry"/>
                </mxCell>
                <mxCell id="IcfBapx624i29WFodWo8-2" value="http://localhost:5000/" style="strokeWidth=1;shadow=0;dashed=0;align=center;html=1;shape=mxgraph.mockup.containers.anchor;rSize=0;fontSize=17;fontColor=#666666;align=left;" parent="IcfBapx624i29WFodWo8-0" vertex="1">
                    <mxGeometry x="130" y="60" width="250" height="26" as="geometry"/>
                </mxCell>
                <mxCell id="IcfBapx624i29WFodWo8-3" value="Photo locations" style="text;html=1;points=[];align=left;verticalAlign=top;spacingTop=-4;fontSize=30;fontFamily=Verdana" parent="IcfBapx624i29WFodWo8-0" vertex="1">
                    <mxGeometry x="10" y="110" width="250" height="50" as="geometry"/>
                </mxCell>
                <mxCell id="IcfBapx624i29WFodWo8-4" value="Search" style="strokeWidth=1;shadow=0;dashed=0;align=center;html=1;shape=mxgraph.mockup.forms.searchBox;strokeColor=#999999;mainText=;strokeColor2=#008cff;fontColor=#666666;fontSize=17;align=left;spacingLeft=3;rounded=0;labelBackgroundColor=none;" parent="IcfBapx624i29WFodWo8-0" vertex="1">
                    <mxGeometry x="820" y="120" width="220" height="30" as="geometry"/>
                </mxCell>
                <mxCell id="IcfBapx624i29WFodWo8-5" value="" style="verticalLabelPosition=bottom;shadow=0;dashed=0;align=center;html=1;verticalAlign=top;strokeWidth=1;shape=mxgraph.mockup.markup.line;strokeColor=#999999;rounded=0;labelBackgroundColor=none;fillColor=#ffffff;fontFamily=Verdana;fontSize=12;fontColor=#000000;" parent="IcfBapx624i29WFodWo8-0" vertex="1">
                    <mxGeometry y="150" width="1050" height="20" as="geometry"/>
                </mxCell>
                <mxCell id="IcfBapx624i29WFodWo8-6" value="" style="verticalLabelPosition=bottom;shadow=0;dashed=0;align=center;html=1;verticalAlign=top;strokeWidth=1;shape=mxgraph.mockup.markup.line;strokeColor=#999999;rounded=0;labelBackgroundColor=none;fillColor=#ffffff;fontFamily=Verdana;fontSize=12;fontColor=#000000;" parent="IcfBapx624i29WFodWo8-0" vertex="1">
                    <mxGeometry y="580" width="1050" height="20" as="geometry"/>
                </mxCell>
                <mxCell id="IcfBapx624i29WFodWo8-11" value="" style="shape=table;html=1;whiteSpace=wrap;startSize=0;container=1;collapsible=0;childLayout=tableLayout;" parent="IcfBapx624i29WFodWo8-0" vertex="1">
                    <mxGeometry x="30" y="180" width="990" height="390" as="geometry"/>
                </mxCell>
                <mxCell id="IcfBapx624i29WFodWo8-12" value="" style="shape=partialRectangle;html=1;whiteSpace=wrap;collapsible=0;dropTarget=0;pointerEvents=0;fillColor=none;top=0;left=0;bottom=0;right=0;points=[[0,0.5],[1,0.5]];portConstraint=eastwest;" parent="IcfBapx624i29WFodWo8-11" vertex="1">
                    <mxGeometry width="990" height="130" as="geometry"/>
                </mxCell>
                <mxCell id="IcfBapx624i29WFodWo8-13" value="Location 1 (Randomly selected)&lt;br&gt;Country: &amp;lt;name&amp;gt;&lt;br&gt;Continent: &amp;lt;name&amp;gt;&lt;br&gt;&lt;br&gt;Background: photo from location (if exists)" style="shape=partialRectangle;html=1;whiteSpace=wrap;connectable=0;fillColor=none;top=0;left=0;bottom=0;right=0;overflow=hidden;" parent="IcfBapx624i29WFodWo8-12" vertex="1">
                    <mxGeometry width="330" height="130" as="geometry"/>
                </mxCell>
                <mxCell id="IcfBapx624i29WFodWo8-14" value="Location 2 (Randomly selected)&lt;br&gt;Country: &amp;lt;name&amp;gt;&lt;br&gt;Continent: &amp;lt;name&amp;gt;&lt;br&gt;&lt;br&gt;Background: photo from location (if exists)" style="shape=partialRectangle;html=1;whiteSpace=wrap;connectable=0;fillColor=none;top=0;left=0;bottom=0;right=0;overflow=hidden;" parent="IcfBapx624i29WFodWo8-12" vertex="1">
                    <mxGeometry x="330" width="330" height="130" as="geometry"/>
                </mxCell>
                <mxCell id="IcfBapx624i29WFodWo8-15" value="&lt;span&gt;Location 3 (Randomly selected)&lt;/span&gt;&lt;br&gt;&lt;span&gt;Country: &amp;lt;name&amp;gt;&lt;/span&gt;&lt;br&gt;&lt;span&gt;Continent: &amp;lt;name&amp;gt;&lt;/span&gt;&lt;br&gt;&lt;br&gt;&lt;span&gt;Background: photo from location (if exists)&lt;/span&gt;" style="shape=partialRectangle;html=1;whiteSpace=wrap;connectable=0;fillColor=none;top=0;left=0;bottom=0;right=0;overflow=hidden;" parent="IcfBapx624i29WFodWo8-12" vertex="1">
                    <mxGeometry x="660" width="330" height="130" as="geometry"/>
                </mxCell>
                <mxCell id="IcfBapx624i29WFodWo8-16" value="" style="shape=partialRectangle;html=1;whiteSpace=wrap;collapsible=0;dropTarget=0;pointerEvents=0;fillColor=none;top=0;left=0;bottom=0;right=0;points=[[0,0.5],[1,0.5]];portConstraint=eastwest;" parent="IcfBapx624i29WFodWo8-11" vertex="1">
                    <mxGeometry y="130" width="990" height="130" as="geometry"/>
                </mxCell>
                <mxCell id="IcfBapx624i29WFodWo8-17" value="&lt;span&gt;Location 4 (Randomly selected)&lt;/span&gt;&lt;br&gt;&lt;span&gt;Country: &amp;lt;name&amp;gt;&lt;/span&gt;&lt;br&gt;&lt;span&gt;Continent: &amp;lt;name&amp;gt;&lt;/span&gt;&lt;br&gt;&lt;br&gt;&lt;span&gt;Background: photo from location (if exists)&lt;/span&gt;" style="shape=partialRectangle;html=1;whiteSpace=wrap;connectable=0;fillColor=none;top=0;left=0;bottom=0;right=0;overflow=hidden;" parent="IcfBapx624i29WFodWo8-16" vertex="1">
                    <mxGeometry width="330" height="130" as="geometry"/>
                </mxCell>
                <mxCell id="IcfBapx624i29WFodWo8-18" value="&lt;span&gt;Location 5 (Randomly selected)&lt;/span&gt;&lt;br&gt;&lt;span&gt;Country: &amp;lt;name&amp;gt;&lt;/span&gt;&lt;br&gt;&lt;span&gt;Continent: &amp;lt;name&amp;gt;&lt;/span&gt;&lt;br&gt;&lt;br&gt;&lt;span&gt;Background: photo from location (if exists)&lt;/span&gt;" style="shape=partialRectangle;html=1;whiteSpace=wrap;connectable=0;fillColor=none;top=0;left=0;bottom=0;right=0;overflow=hidden;" parent="IcfBapx624i29WFodWo8-16" vertex="1">
                    <mxGeometry x="330" width="330" height="130" as="geometry"/>
                </mxCell>
                <mxCell id="IcfBapx624i29WFodWo8-19" value="&lt;span&gt;Location 6 (Randomly selected)&lt;/span&gt;&lt;br&gt;&lt;span&gt;Country: &amp;lt;name&amp;gt;&lt;/span&gt;&lt;br&gt;&lt;span&gt;Continent: &amp;lt;name&amp;gt;&lt;/span&gt;&lt;br&gt;&lt;br&gt;&lt;span&gt;Background: photo from location (if exists)&lt;/span&gt;" style="shape=partialRectangle;html=1;whiteSpace=wrap;connectable=0;fillColor=none;top=0;left=0;bottom=0;right=0;overflow=hidden;" parent="IcfBapx624i29WFodWo8-16" vertex="1">
                    <mxGeometry x="660" width="330" height="130" as="geometry"/>
                </mxCell>
                <mxCell id="IcfBapx624i29WFodWo8-20" value="" style="shape=partialRectangle;html=1;whiteSpace=wrap;collapsible=0;dropTarget=0;pointerEvents=0;fillColor=none;top=0;left=0;bottom=0;right=0;points=[[0,0.5],[1,0.5]];portConstraint=eastwest;" parent="IcfBapx624i29WFodWo8-11" vertex="1">
                    <mxGeometry y="260" width="990" height="130" as="geometry"/>
                </mxCell>
                <mxCell id="IcfBapx624i29WFodWo8-21" value="&lt;span&gt;Location 7 (Randomly selected)&lt;/span&gt;&lt;br&gt;&lt;span&gt;Country: &amp;lt;name&amp;gt;&lt;/span&gt;&lt;br&gt;&lt;span&gt;Continent: &amp;lt;name&amp;gt;&lt;/span&gt;&lt;br&gt;&lt;br&gt;&lt;span&gt;Background: photo from location (if exists)&lt;/span&gt;" style="shape=partialRectangle;html=1;whiteSpace=wrap;connectable=0;fillColor=none;top=0;left=0;bottom=0;right=0;overflow=hidden;" parent="IcfBapx624i29WFodWo8-20" vertex="1">
                    <mxGeometry width="330" height="130" as="geometry"/>
                </mxCell>
                <mxCell id="IcfBapx624i29WFodWo8-22" value="&lt;span&gt;Location 8 (Randomly selected)&lt;/span&gt;&lt;br&gt;&lt;span&gt;Country: &amp;lt;name&amp;gt;&lt;/span&gt;&lt;br&gt;&lt;span&gt;Continent: &amp;lt;name&amp;gt;&lt;/span&gt;&lt;br&gt;&lt;br&gt;&lt;span&gt;Background: photo from location (if exists)&lt;/span&gt;" style="shape=partialRectangle;html=1;whiteSpace=wrap;connectable=0;fillColor=none;top=0;left=0;bottom=0;right=0;overflow=hidden;" parent="IcfBapx624i29WFodWo8-20" vertex="1">
                    <mxGeometry x="330" width="330" height="130" as="geometry"/>
                </mxCell>
                <mxCell id="IcfBapx624i29WFodWo8-23" value="&lt;span&gt;Location 9 (Randomly selected)&lt;/span&gt;&lt;br&gt;&lt;span&gt;Country: &amp;lt;name&amp;gt;&lt;/span&gt;&lt;br&gt;&lt;span&gt;Continent: &amp;lt;name&amp;gt;&lt;/span&gt;&lt;br&gt;&lt;br&gt;&lt;span&gt;Background: photo from location (if exists)&lt;/span&gt;" style="shape=partialRectangle;html=1;whiteSpace=wrap;connectable=0;fillColor=none;top=0;left=0;bottom=0;right=0;overflow=hidden;" parent="IcfBapx624i29WFodWo8-20" vertex="1">
                    <mxGeometry x="660" width="330" height="130" as="geometry"/>
                </mxCell>
                <mxCell id="IcfBapx624i29WFodWo8-24" value="Copyrights Aberdeenshire UK 2020. All Rights Reserved" style="text;html=1;strokeColor=none;fillColor=none;align=center;verticalAlign=middle;whiteSpace=wrap;rounded=0;" parent="IcfBapx624i29WFodWo8-0" vertex="1">
                    <mxGeometry y="590" width="1050" height="30" as="geometry"/>
                </mxCell>
                <mxCell id="IcfBapx624i29WFodWo8-7" value="" style="strokeWidth=1;shadow=0;dashed=0;align=center;html=1;shape=mxgraph.mockup.rrect;rSize=10;fillColor=#ffffff;strokeColor=#666666;" parent="IcfBapx624i29WFodWo8-0" vertex="1">
                    <mxGeometry x="410" y="120" width="385" height="210" as="geometry"/>
                </mxCell>
                <mxCell id="IcfBapx624i29WFodWo8-8" value="Edit" style="strokeColor=inherit;fillColor=inherit;gradientColor=inherit;strokeWidth=1;shadow=0;dashed=0;align=center;html=1;shape=mxgraph.mockup.rrect;rSize=0;fontSize=17;fontColor=#666666;fontStyle=1;resizeHeight=1;" parent="IcfBapx624i29WFodWo8-7" vertex="1">
                    <mxGeometry width="125" height="30" relative="1" as="geometry">
                        <mxPoint x="125" as="offset"/>
                    </mxGeometry>
                </mxCell>
                <mxCell id="IcfBapx624i29WFodWo8-9" value="View" style="strokeColor=inherit;fillColor=inherit;gradientColor=inherit;strokeWidth=1;shadow=0;dashed=0;align=center;html=1;shape=mxgraph.mockup.rrect;rSize=0;fontSize=17;fontColor=#666666;fontStyle=1;resizeHeight=1;" parent="IcfBapx624i29WFodWo8-7" vertex="1">
                    <mxGeometry width="125" height="30" relative="1" as="geometry">
                        <mxPoint x="250" as="offset"/>
                    </mxGeometry>
                </mxCell>
                <mxCell id="IcfBapx624i29WFodWo8-10" value="Add" style="strokeWidth=1;shadow=0;dashed=0;align=center;html=1;shape=mxgraph.mockup.leftButton;rSize=10;fontSize=17;fontColor=#ffffff;fontStyle=1;fillColor=#008cff;strokeColor=#008cff;resizeHeight=1;" parent="IcfBapx624i29WFodWo8-7" vertex="1">
                    <mxGeometry width="125" height="30" relative="1" as="geometry"/>
                </mxCell>
                <mxCell id="4cXKv_82eQMCBubQu1tV-0" value="Country" style="strokeWidth=1;shadow=0;dashed=0;align=center;html=1;shape=mxgraph.mockup.buttons.button;strokeColor=#000000;fontColor=#000000;mainText=;buttonStyle=round;fontSize=17;fontStyle=1;fillColor=#FFFFFF;whiteSpace=wrap;" parent="IcfBapx624i29WFodWo8-7" vertex="1">
                    <mxGeometry x="18" y="31" width="110" height="30" as="geometry"/>
                </mxCell>
                <mxCell id="4cXKv_82eQMCBubQu1tV-1" value="Location" style="strokeWidth=1;shadow=0;dashed=0;align=center;html=1;shape=mxgraph.mockup.buttons.button;strokeColor=#000000;fontColor=#000000;mainText=;buttonStyle=round;fontSize=17;fontStyle=1;fillColor=#FFFFFF;whiteSpace=wrap;" parent="IcfBapx624i29WFodWo8-7" vertex="1">
                    <mxGeometry x="18" y="61" width="110" height="30" as="geometry"/>
                </mxCell>
                <mxCell id="4cXKv_82eQMCBubQu1tV-2" value="Country" style="strokeWidth=1;shadow=0;dashed=0;align=center;html=1;shape=mxgraph.mockup.buttons.button;strokeColor=#000000;fontColor=#000000;mainText=;buttonStyle=round;fontSize=17;fontStyle=1;fillColor=#FFFFFF;whiteSpace=wrap;" parent="IcfBapx624i29WFodWo8-7" vertex="1">
                    <mxGeometry x="137.5" y="31" width="110" height="30" as="geometry"/>
                </mxCell>
                <mxCell id="4cXKv_82eQMCBubQu1tV-3" value="Location" style="strokeWidth=1;shadow=0;dashed=0;align=center;html=1;shape=mxgraph.mockup.buttons.button;strokeColor=#000000;fontColor=#000000;mainText=;buttonStyle=round;fontSize=17;fontStyle=1;fillColor=#FFFFFF;whiteSpace=wrap;" parent="IcfBapx624i29WFodWo8-7" vertex="1">
                    <mxGeometry x="137.5" y="61" width="110" height="30" as="geometry"/>
                </mxCell>
                <mxCell id="4cXKv_82eQMCBubQu1tV-4" value="Visited" style="strokeWidth=1;shadow=0;dashed=0;align=center;html=1;shape=mxgraph.mockup.buttons.button;strokeColor=#000000;fontColor=#000000;mainText=;buttonStyle=round;fontSize=17;fontStyle=1;fillColor=#FFFFFF;whiteSpace=wrap;" parent="IcfBapx624i29WFodWo8-7" vertex="1">
                    <mxGeometry x="260" y="31" width="110" height="30" as="geometry"/>
                </mxCell>
                <mxCell id="4cXKv_82eQMCBubQu1tV-5" value="Not visited" style="strokeWidth=1;shadow=0;dashed=0;align=center;html=1;shape=mxgraph.mockup.buttons.button;strokeColor=#000000;fontColor=#000000;mainText=;buttonStyle=round;fontSize=17;fontStyle=1;fillColor=#FFFFFF;whiteSpace=wrap;" parent="IcfBapx624i29WFodWo8-7" vertex="1">
                    <mxGeometry x="260" y="61" width="110" height="30" as="geometry"/>
                </mxCell>
                <mxCell id="Zlvtw9Fu_qqbjNN83GrD-0" value="&lt;font style=&quot;font-size: 72px&quot;&gt;Navigation options&lt;/font&gt;" style="text;html=1;strokeColor=none;fillColor=none;align=center;verticalAlign=middle;whiteSpace=wrap;rounded=0;" parent="ziD7xMIUt8b3zbC6FGtw-1" vertex="1">
                    <mxGeometry x="20" y="10" width="1050" height="110" as="geometry"/>
                </mxCell>
            </root>
        </mxGraphModel>
    </diagram>
    <diagram id="BucQiNpMhPca0tcvDmof" name="Add country">
        &#xa;
        <mxGraphModel dx="2906" dy="1434" grid="1" gridSize="10" guides="1" tooltips="1" connect="1" arrows="1" fold="1" page="1" pageScale="1" pageWidth="827" pageHeight="1169" math="0" shadow="0">
            &#xa;
            <root>
                &#xa;
                <mxCell id="uRWXqhdTPSYLSeYAuKq4-0"/>
                &#xa;
                <mxCell id="uRWXqhdTPSYLSeYAuKq4-1" parent="uRWXqhdTPSYLSeYAuKq4-0"/>
                &#xa;
                <mxCell id="Kx0LBbPqr-d0cCUo939U-0" value="" style="strokeWidth=1;shadow=0;dashed=0;align=center;html=1;shape=mxgraph.mockup.containers.browserWindow;rSize=0;strokeColor=#666666;mainText=,;recursiveResize=0;rounded=0;labelBackgroundColor=none;fontFamily=Verdana;fontSize=12" vertex="1" parent="uRWXqhdTPSYLSeYAuKq4-1">
                    &#xa;
                    <mxGeometry y="220" width="1050" height="620" as="geometry"/>
                    &#xa;
                </mxCell>
                &#xa;
                <mxCell id="Kx0LBbPqr-d0cCUo939U-1" value="Page 1" style="strokeWidth=1;shadow=0;dashed=0;align=center;html=1;shape=mxgraph.mockup.containers.anchor;fontSize=17;fontColor=#666666;align=left;" vertex="1" parent="Kx0LBbPqr-d0cCUo939U-0">
                    &#xa;
                    <mxGeometry x="60" y="12" width="110" height="26" as="geometry"/>
                    &#xa;
                </mxCell>
                &#xa;
                <mxCell id="Kx0LBbPqr-d0cCUo939U-2" value="http://localhost:5000/" style="strokeWidth=1;shadow=0;dashed=0;align=center;html=1;shape=mxgraph.mockup.containers.anchor;rSize=0;fontSize=17;fontColor=#666666;align=left;" vertex="1" parent="Kx0LBbPqr-d0cCUo939U-0">
                    &#xa;
                    <mxGeometry x="130" y="60" width="250" height="26" as="geometry"/>
                    &#xa;
                </mxCell>
                &#xa;
                <mxCell id="Kx0LBbPqr-d0cCUo939U-3" value="Photo locations" style="text;html=1;points=[];align=left;verticalAlign=top;spacingTop=-4;fontSize=30;fontFamily=Verdana" vertex="1" parent="Kx0LBbPqr-d0cCUo939U-0">
                    &#xa;
                    <mxGeometry x="10" y="110" width="250" height="50" as="geometry"/>
                    &#xa;
                </mxCell>
                &#xa;
                <mxCell id="Kx0LBbPqr-d0cCUo939U-4" value="Search" style="strokeWidth=1;shadow=0;dashed=0;align=center;html=1;shape=mxgraph.mockup.forms.searchBox;strokeColor=#999999;mainText=;strokeColor2=#008cff;fontColor=#666666;fontSize=17;align=left;spacingLeft=3;rounded=0;labelBackgroundColor=none;" vertex="1" parent="Kx0LBbPqr-d0cCUo939U-0">
                    &#xa;
                    <mxGeometry x="820" y="120" width="220" height="30" as="geometry"/>
                    &#xa;
                </mxCell>
                &#xa;
                <mxCell id="Kx0LBbPqr-d0cCUo939U-5" value="" style="verticalLabelPosition=bottom;shadow=0;dashed=0;align=center;html=1;verticalAlign=top;strokeWidth=1;shape=mxgraph.mockup.markup.line;strokeColor=#999999;rounded=0;labelBackgroundColor=none;fillColor=#ffffff;fontFamily=Verdana;fontSize=12;fontColor=#000000;" vertex="1" parent="Kx0LBbPqr-d0cCUo939U-0">
                    &#xa;
                    <mxGeometry y="150" width="1050" height="20" as="geometry"/>
                    &#xa;
                </mxCell>
                &#xa;
                <mxCell id="Kx0LBbPqr-d0cCUo939U-6" value="" style="verticalLabelPosition=bottom;shadow=0;dashed=0;align=center;html=1;verticalAlign=top;strokeWidth=1;shape=mxgraph.mockup.markup.line;strokeColor=#999999;rounded=0;labelBackgroundColor=none;fillColor=#ffffff;fontFamily=Verdana;fontSize=12;fontColor=#000000;" vertex="1" parent="Kx0LBbPqr-d0cCUo939U-0">
                    &#xa;
                    <mxGeometry y="580" width="1050" height="20" as="geometry"/>
                    &#xa;
                </mxCell>
                &#xa;
                <mxCell id="Kx0LBbPqr-d0cCUo939U-7" value="" style="strokeWidth=1;shadow=0;dashed=0;align=center;html=1;shape=mxgraph.mockup.rrect;rSize=10;fillColor=#ffffff;strokeColor=#666666;" vertex="1" parent="Kx0LBbPqr-d0cCUo939U-0">
                    &#xa;
                    <mxGeometry x="410" y="120" width="385" height="30" as="geometry"/>
                    &#xa;
                </mxCell>
                &#xa;
                <mxCell id="Kx0LBbPqr-d0cCUo939U-8" value="Edit" style="strokeColor=inherit;fillColor=inherit;gradientColor=inherit;strokeWidth=1;shadow=0;dashed=0;align=center;html=1;shape=mxgraph.mockup.rrect;rSize=0;fontSize=17;fontColor=#666666;fontStyle=1;resizeHeight=1;" vertex="1" parent="Kx0LBbPqr-d0cCUo939U-7">
                    &#xa;
                    <mxGeometry width="125" height="30" relative="1" as="geometry">
                        &#xa;
                        <mxPoint x="125" as="offset"/>
                        &#xa;
                    </mxGeometry>
                    &#xa;
                </mxCell>
                &#xa;
                <mxCell id="Kx0LBbPqr-d0cCUo939U-9" value="View" style="strokeColor=inherit;fillColor=inherit;gradientColor=inherit;strokeWidth=1;shadow=0;dashed=0;align=center;html=1;shape=mxgraph.mockup.rrect;rSize=0;fontSize=17;fontColor=#666666;fontStyle=1;resizeHeight=1;" vertex="1" parent="Kx0LBbPqr-d0cCUo939U-7">
                    &#xa;
                    <mxGeometry width="125" height="30" relative="1" as="geometry">
                        &#xa;
                        <mxPoint x="250" as="offset"/>
                        &#xa;
                    </mxGeometry>
                    &#xa;
                </mxCell>
                &#xa;
                <mxCell id="Kx0LBbPqr-d0cCUo939U-10" value="Add" style="strokeWidth=1;shadow=0;dashed=0;align=center;html=1;shape=mxgraph.mockup.leftButton;rSize=10;fontSize=17;fontColor=#ffffff;fontStyle=1;fillColor=#008cff;strokeColor=#FFFFFF;resizeHeight=1;" vertex="1" parent="Kx0LBbPqr-d0cCUo939U-7">
                    &#xa;
                    <mxGeometry width="125" height="30" relative="1" as="geometry"/>
                    &#xa;
                </mxCell>
                &#xa;
                <mxCell id="Kx0LBbPqr-d0cCUo939U-24" value="Copyrights Aberdeenshire UK 2020. All Rights Reserved" style="text;html=1;strokeColor=none;fillColor=none;align=center;verticalAlign=middle;whiteSpace=wrap;rounded=0;" vertex="1" parent="Kx0LBbPqr-d0cCUo939U-0">
                    &#xa;
                    <mxGeometry y="590" width="1050" height="30" as="geometry"/>
                    &#xa;
                </mxCell>
                &#xa;
                <mxCell id="Kx0LBbPqr-d0cCUo939U-26" value="Continents" style="strokeWidth=1;shadow=0;dashed=0;align=center;html=1;shape=mxgraph.mockup.forms.comboBox;strokeColor=#999999;fillColor=#ddeeff;align=left;fillColor2=#aaddff;mainText=;fontColor=#666666;fontSize=17;spacingLeft=3;" vertex="1" parent="Kx0LBbPqr-d0cCUo939U-0">
                    &#xa;
                    <mxGeometry x="450" y="230" width="150" height="30" as="geometry"/>
                    &#xa;
                </mxCell>
                &#xa;
                <mxCell id="Kx0LBbPqr-d0cCUo939U-28" value="Country name" style="strokeWidth=1;shadow=0;dashed=0;align=center;html=1;shape=mxgraph.mockup.text.textBox;fontColor=#666666;align=left;fontSize=17;spacingLeft=4;spacingTop=-3;strokeColor=#666666;mainText=;fillColor=#FFFFFF;" vertex="1" parent="Kx0LBbPqr-d0cCUo939U-0">
                    &#xa;
                    <mxGeometry x="450" y="280" width="150" height="30" as="geometry"/>
                    &#xa;
                </mxCell>
                &#xa;
                <mxCell id="Kx0LBbPqr-d0cCUo939U-29" value="Add" style="strokeWidth=1;shadow=0;dashed=0;align=center;html=1;shape=mxgraph.mockup.buttons.button;strokeColor=#666666;fontColor=#ffffff;mainText=;buttonStyle=round;fontSize=17;fontStyle=1;fillColor=#008cff;whiteSpace=wrap;" vertex="1" parent="Kx0LBbPqr-d0cCUo939U-0">
                    &#xa;
                    <mxGeometry x="340" y="330" width="260" height="50" as="geometry"/>
                    &#xa;
                </mxCell>
                &#xa;
                <mxCell id="Kx0LBbPqr-d0cCUo939U-30" value="&lt;font style=&quot;font-size: 18px&quot;&gt;Continent:&lt;/font&gt;" style="text;html=1;strokeColor=none;fillColor=none;align=center;verticalAlign=middle;whiteSpace=wrap;rounded=0;" vertex="1" parent="Kx0LBbPqr-d0cCUo939U-0">
                    &#xa;
                    <mxGeometry x="316" y="230" width="134" height="30" as="geometry"/>
                    &#xa;
                </mxCell>
                &#xa;
                <mxCell id="Kx0LBbPqr-d0cCUo939U-31" value="&lt;font style=&quot;font-size: 18px&quot;&gt;Country:&lt;/font&gt;" style="text;html=1;strokeColor=none;fillColor=none;align=center;verticalAlign=middle;whiteSpace=wrap;rounded=0;" vertex="1" parent="Kx0LBbPqr-d0cCUo939U-0">
                    &#xa;
                    <mxGeometry x="316" y="280" width="134" height="30" as="geometry"/>
                    &#xa;
                </mxCell>
                &#xa;
                <mxCell id="3gGpvtcNnHi726yrd2P5-0" value="Add country" style="text;html=1;points=[];align=left;verticalAlign=top;spacingTop=-4;fontSize=30;fontFamily=Verdana" vertex="1" parent="Kx0LBbPqr-d0cCUo939U-0">
                    &#xa;
                    <mxGeometry x="345" y="180" width="250" height="50" as="geometry"/>
                    &#xa;
                </mxCell>
                &#xa;
                <mxCell id="Kx0LBbPqr-d0cCUo939U-25" value="&lt;font style=&quot;font-size: 72px&quot;&gt;Add Country&lt;/font&gt;" style="text;html=1;strokeColor=none;fillColor=none;align=center;verticalAlign=middle;whiteSpace=wrap;rounded=0;" vertex="1" parent="uRWXqhdTPSYLSeYAuKq4-1">
                    &#xa;
                    <mxGeometry x="200" y="120" width="720" height="110" as="geometry"/>
                    &#xa;
                </mxCell>
                &#xa;
            </root>
            &#xa;
        </mxGraphModel>
        &#xa;
    </diagram>
    <diagram name="Add location" id="rRYSalzadIg-eHl3kwHy">
        &#xa;
        <mxGraphModel dx="1453" dy="717" grid="1" gridSize="10" guides="1" tooltips="1" connect="1" arrows="1" fold="1" page="1" pageScale="1" pageWidth="827" pageHeight="1169" math="0" shadow="0">
            &#xa;
            <root>
                &#xa;
                <mxCell id="dXUxXyEJBjzyn6Bd1BhP-0"/>
                &#xa;
                <mxCell id="dXUxXyEJBjzyn6Bd1BhP-1" parent="dXUxXyEJBjzyn6Bd1BhP-0"/>
                &#xa;
                <mxCell id="dXUxXyEJBjzyn6Bd1BhP-2" value="" style="strokeWidth=1;shadow=0;dashed=0;align=center;html=1;shape=mxgraph.mockup.containers.browserWindow;rSize=0;strokeColor=#666666;mainText=,;recursiveResize=0;rounded=0;labelBackgroundColor=none;fontFamily=Verdana;fontSize=12" vertex="1" parent="dXUxXyEJBjzyn6Bd1BhP-1">
                    &#xa;
                    <mxGeometry x="10" y="210" width="1050" height="620" as="geometry"/>
                    &#xa;
                </mxCell>
                &#xa;
                <mxCell id="dXUxXyEJBjzyn6Bd1BhP-3" value="Page 1" style="strokeWidth=1;shadow=0;dashed=0;align=center;html=1;shape=mxgraph.mockup.containers.anchor;fontSize=17;fontColor=#666666;align=left;" vertex="1" parent="dXUxXyEJBjzyn6Bd1BhP-2">
                    &#xa;
                    <mxGeometry x="60" y="12" width="110" height="26" as="geometry"/>
                    &#xa;
                </mxCell>
                &#xa;
                <mxCell id="dXUxXyEJBjzyn6Bd1BhP-4" value="http://localhost:5000/" style="strokeWidth=1;shadow=0;dashed=0;align=center;html=1;shape=mxgraph.mockup.containers.anchor;rSize=0;fontSize=17;fontColor=#666666;align=left;" vertex="1" parent="dXUxXyEJBjzyn6Bd1BhP-2">
                    &#xa;
                    <mxGeometry x="130" y="60" width="250" height="26" as="geometry"/>
                    &#xa;
                </mxCell>
                &#xa;
                <mxCell id="dXUxXyEJBjzyn6Bd1BhP-5" value="Photo locations" style="text;html=1;points=[];align=left;verticalAlign=top;spacingTop=-4;fontSize=30;fontFamily=Verdana" vertex="1" parent="dXUxXyEJBjzyn6Bd1BhP-2">
                    &#xa;
                    <mxGeometry x="10" y="110" width="250" height="50" as="geometry"/>
                    &#xa;
                </mxCell>
                &#xa;
                <mxCell id="dXUxXyEJBjzyn6Bd1BhP-6" value="Search" style="strokeWidth=1;shadow=0;dashed=0;align=center;html=1;shape=mxgraph.mockup.forms.searchBox;strokeColor=#999999;mainText=;strokeColor2=#008cff;fontColor=#666666;fontSize=17;align=left;spacingLeft=3;rounded=0;labelBackgroundColor=none;" vertex="1" parent="dXUxXyEJBjzyn6Bd1BhP-2">
                    &#xa;
                    <mxGeometry x="820" y="120" width="220" height="30" as="geometry"/>
                    &#xa;
                </mxCell>
                &#xa;
                <mxCell id="dXUxXyEJBjzyn6Bd1BhP-7" value="" style="verticalLabelPosition=bottom;shadow=0;dashed=0;align=center;html=1;verticalAlign=top;strokeWidth=1;shape=mxgraph.mockup.markup.line;strokeColor=#999999;rounded=0;labelBackgroundColor=none;fillColor=#ffffff;fontFamily=Verdana;fontSize=12;fontColor=#000000;" vertex="1" parent="dXUxXyEJBjzyn6Bd1BhP-2">
                    &#xa;
                    <mxGeometry y="150" width="1050" height="20" as="geometry"/>
                    &#xa;
                </mxCell>
                &#xa;
                <mxCell id="dXUxXyEJBjzyn6Bd1BhP-8" value="" style="verticalLabelPosition=bottom;shadow=0;dashed=0;align=center;html=1;verticalAlign=top;strokeWidth=1;shape=mxgraph.mockup.markup.line;strokeColor=#999999;rounded=0;labelBackgroundColor=none;fillColor=#ffffff;fontFamily=Verdana;fontSize=12;fontColor=#000000;" vertex="1" parent="dXUxXyEJBjzyn6Bd1BhP-2">
                    &#xa;
                    <mxGeometry y="580" width="1050" height="20" as="geometry"/>
                    &#xa;
                </mxCell>
                &#xa;
                <mxCell id="dXUxXyEJBjzyn6Bd1BhP-9" value="" style="strokeWidth=1;shadow=0;dashed=0;align=center;html=1;shape=mxgraph.mockup.rrect;rSize=10;fillColor=#ffffff;strokeColor=#666666;" vertex="1" parent="dXUxXyEJBjzyn6Bd1BhP-2">
                    &#xa;
                    <mxGeometry x="410" y="120" width="385" height="30" as="geometry"/>
                    &#xa;
                </mxCell>
                &#xa;
                <mxCell id="dXUxXyEJBjzyn6Bd1BhP-10" value="Edit" style="strokeColor=inherit;fillColor=inherit;gradientColor=inherit;strokeWidth=1;shadow=0;dashed=0;align=center;html=1;shape=mxgraph.mockup.rrect;rSize=0;fontSize=17;fontColor=#666666;fontStyle=1;resizeHeight=1;" vertex="1" parent="dXUxXyEJBjzyn6Bd1BhP-9">
                    &#xa;
                    <mxGeometry width="125" height="30" relative="1" as="geometry">
                        &#xa;
                        <mxPoint x="125" as="offset"/>
                        &#xa;
                    </mxGeometry>
                    &#xa;
                </mxCell>
                &#xa;
                <mxCell id="dXUxXyEJBjzyn6Bd1BhP-11" value="View" style="strokeColor=inherit;fillColor=inherit;gradientColor=inherit;strokeWidth=1;shadow=0;dashed=0;align=center;html=1;shape=mxgraph.mockup.rrect;rSize=0;fontSize=17;fontColor=#666666;fontStyle=1;resizeHeight=1;" vertex="1" parent="dXUxXyEJBjzyn6Bd1BhP-9">
                    &#xa;
                    <mxGeometry width="125" height="30" relative="1" as="geometry">
                        &#xa;
                        <mxPoint x="250" as="offset"/>
                        &#xa;
                    </mxGeometry>
                    &#xa;
                </mxCell>
                &#xa;
                <mxCell id="dXUxXyEJBjzyn6Bd1BhP-12" value="Add" style="strokeWidth=1;shadow=0;dashed=0;align=center;html=1;shape=mxgraph.mockup.leftButton;rSize=10;fontSize=17;fontColor=#ffffff;fontStyle=1;fillColor=#008cff;strokeColor=#FFFFFF;resizeHeight=1;" vertex="1" parent="dXUxXyEJBjzyn6Bd1BhP-9">
                    &#xa;
                    <mxGeometry width="125" height="30" relative="1" as="geometry"/>
                    &#xa;
                </mxCell>
                &#xa;
                <mxCell id="dXUxXyEJBjzyn6Bd1BhP-13" value="Copyrights Aberdeenshire UK 2020. All Rights Reserved" style="text;html=1;strokeColor=none;fillColor=none;align=center;verticalAlign=middle;whiteSpace=wrap;rounded=0;" vertex="1" parent="dXUxXyEJBjzyn6Bd1BhP-2">
                    &#xa;
                    <mxGeometry y="590" width="1050" height="30" as="geometry"/>
                    &#xa;
                </mxCell>
                &#xa;
                <mxCell id="dXUxXyEJBjzyn6Bd1BhP-14" value="Country list" style="strokeWidth=1;shadow=0;dashed=0;align=center;html=1;shape=mxgraph.mockup.forms.comboBox;strokeColor=#999999;fillColor=#ddeeff;align=left;fillColor2=#aaddff;mainText=;fontColor=#666666;fontSize=17;spacingLeft=3;" vertex="1" parent="dXUxXyEJBjzyn6Bd1BhP-2">
                    &#xa;
                    <mxGeometry x="450" y="210" width="150" height="30" as="geometry"/>
                    &#xa;
                </mxCell>
                &#xa;
                <mxCell id="dXUxXyEJBjzyn6Bd1BhP-15" value="Location name" style="strokeWidth=1;shadow=0;dashed=0;align=center;html=1;shape=mxgraph.mockup.text.textBox;fontColor=#666666;align=left;fontSize=17;spacingLeft=4;spacingTop=-3;strokeColor=#666666;mainText=;fillColor=#FFFFFF;" vertex="1" parent="dXUxXyEJBjzyn6Bd1BhP-2">
                    &#xa;
                    <mxGeometry x="450" y="250" width="150" height="30" as="geometry"/>
                    &#xa;
                </mxCell>
                &#xa;
                <mxCell id="dXUxXyEJBjzyn6Bd1BhP-16" value="Add" style="strokeWidth=1;shadow=0;dashed=0;align=center;html=1;shape=mxgraph.mockup.buttons.button;strokeColor=#666666;fontColor=#ffffff;mainText=;buttonStyle=round;fontSize=17;fontStyle=1;fillColor=#008cff;whiteSpace=wrap;" vertex="1" parent="dXUxXyEJBjzyn6Bd1BhP-2">
                    &#xa;
                    <mxGeometry x="330" y="510" width="260" height="50" as="geometry"/>
                    &#xa;
                </mxCell>
                &#xa;
                <mxCell id="dXUxXyEJBjzyn6Bd1BhP-17" value="&lt;font style=&quot;font-size: 18px&quot;&gt;Country:&lt;/font&gt;" style="text;html=1;strokeColor=none;fillColor=none;align=center;verticalAlign=middle;whiteSpace=wrap;rounded=0;" vertex="1" parent="dXUxXyEJBjzyn6Bd1BhP-2">
                    &#xa;
                    <mxGeometry x="316" y="210" width="134" height="30" as="geometry"/>
                    &#xa;
                </mxCell>
                &#xa;
                <mxCell id="dXUxXyEJBjzyn6Bd1BhP-18" value="&lt;font style=&quot;font-size: 18px&quot;&gt;Location:&lt;/font&gt;" style="text;html=1;strokeColor=none;fillColor=none;align=center;verticalAlign=middle;whiteSpace=wrap;rounded=0;" vertex="1" parent="dXUxXyEJBjzyn6Bd1BhP-2">
                    &#xa;
                    <mxGeometry x="316" y="250" width="134" height="30" as="geometry"/>
                    &#xa;
                </mxCell>
                &#xa;
                <mxCell id="RufcvE82wpOSYurmm8rU-2" value="Lorem ipsum dolor sit amet, consectetur adipisicing elit, sed do eiusmod tempor incididunt ut labore et dolore magna aliqua. Ut enim ad minim veniam, quis nostrud exercitation ullamco laboris nisi ut aliquip ex ea commodo consequat. Duis aute irure dolor in reprehenderit in voluptate velit esse cillum dolore eu fugiat nulla pariatur. Excepteur sint occaecat cupidatat non proident, sunt in culpa&amp;nbsp;" style="text;spacingTop=-5;whiteSpace=wrap;html=1;align=left;fontSize=12;fontFamily=Helvetica;fillColor=none;strokeColor=none;" vertex="1" parent="dXUxXyEJBjzyn6Bd1BhP-2">
                    &#xa;
                    <mxGeometry x="330" y="360" width="270" height="130" as="geometry"/>
                    &#xa;
                </mxCell>
                &#xa;
                <mxCell id="RufcvE82wpOSYurmm8rU-3" value="&lt;font style=&quot;font-size: 18px&quot;&gt;Brief:&lt;/font&gt;" style="text;html=1;strokeColor=none;fillColor=none;align=center;verticalAlign=middle;whiteSpace=wrap;rounded=0;" vertex="1" parent="dXUxXyEJBjzyn6Bd1BhP-2">
                    &#xa;
                    <mxGeometry x="330" y="330" width="134" height="30" as="geometry"/>
                    &#xa;
                </mxCell>
                &#xa;
                <mxCell id="t5VrJEODi1iGNhZ2l6gj-0" value="Add location" style="text;html=1;points=[];align=left;verticalAlign=top;spacingTop=-4;fontSize=30;fontFamily=Verdana" vertex="1" parent="dXUxXyEJBjzyn6Bd1BhP-2">
                    &#xa;
                    <mxGeometry x="350" y="170" width="250" height="50" as="geometry"/>
                    &#xa;
                </mxCell>
                &#xa;
                <mxCell id="lME4A2mq8w_PowPyWyVF-0" value="No" style="strokeWidth=1;shadow=0;dashed=0;align=center;html=1;shape=mxgraph.mockup.buttons.onOffButton;gradientColor=none;strokeColor=#999999;buttonState=on;fillColor2=#008cff;fontColor=#ffffff;fontSize=17;mainText=;spacingRight=40;fontStyle=1;" vertex="1" parent="dXUxXyEJBjzyn6Bd1BhP-2">
                    &#xa;
                    <mxGeometry x="450" y="290" width="150" height="30" as="geometry"/>
                    &#xa;
                </mxCell>
                &#xa;
                <mxCell id="lME4A2mq8w_PowPyWyVF-22" value="&lt;font style=&quot;font-size: 18px&quot;&gt;Visited&lt;/font&gt;" style="text;html=1;strokeColor=none;fillColor=none;align=center;verticalAlign=middle;whiteSpace=wrap;rounded=0;" vertex="1" parent="dXUxXyEJBjzyn6Bd1BhP-2">
                    &#xa;
                    <mxGeometry x="316" y="290" width="134" height="30" as="geometry"/>
                    &#xa;
                </mxCell>
                &#xa;
                <mxCell id="dXUxXyEJBjzyn6Bd1BhP-19" value="&lt;font style=&quot;font-size: 72px&quot;&gt;Add Location&lt;/font&gt;" style="text;html=1;strokeColor=none;fillColor=none;align=center;verticalAlign=middle;whiteSpace=wrap;rounded=0;" vertex="1" parent="dXUxXyEJBjzyn6Bd1BhP-1">
                    &#xa;
                    <mxGeometry x="200" y="120" width="720" height="110" as="geometry"/>
                    &#xa;
                </mxCell>
                &#xa;
            </root>
            &#xa;
        </mxGraphModel>
        &#xa;
    </diagram>
    <diagram name="Edit or delete country" id="WllRqIDWEEng6SbMUi48">
        &#xa;
        <mxGraphModel dx="2076" dy="1024" grid="1" gridSize="10" guides="1" tooltips="1" connect="1" arrows="1" fold="1" page="1" pageScale="1" pageWidth="827" pageHeight="1169" math="0" shadow="0">
            &#xa;
            <root>
                &#xa;
                <mxCell id="xFg1kfZ2DWBi5ZQq5oqP-0"/>
                &#xa;
                <mxCell id="xFg1kfZ2DWBi5ZQq5oqP-1" parent="xFg1kfZ2DWBi5ZQq5oqP-0"/>
                &#xa;
                <mxCell id="xFg1kfZ2DWBi5ZQq5oqP-2" value="" style="strokeWidth=1;shadow=0;dashed=0;align=center;html=1;shape=mxgraph.mockup.containers.browserWindow;rSize=0;strokeColor=#666666;mainText=,;recursiveResize=0;rounded=0;labelBackgroundColor=none;fontFamily=Verdana;fontSize=12" vertex="1" parent="xFg1kfZ2DWBi5ZQq5oqP-1">
                    &#xa;
                    <mxGeometry y="220" width="1050" height="620" as="geometry"/>
                    &#xa;
                </mxCell>
                &#xa;
                <mxCell id="xFg1kfZ2DWBi5ZQq5oqP-3" value="Page 1" style="strokeWidth=1;shadow=0;dashed=0;align=center;html=1;shape=mxgraph.mockup.containers.anchor;fontSize=17;fontColor=#666666;align=left;" vertex="1" parent="xFg1kfZ2DWBi5ZQq5oqP-2">
                    &#xa;
                    <mxGeometry x="60" y="12" width="110" height="26" as="geometry"/>
                    &#xa;
                </mxCell>
                &#xa;
                <mxCell id="xFg1kfZ2DWBi5ZQq5oqP-4" value="http://localhost:5000/" style="strokeWidth=1;shadow=0;dashed=0;align=center;html=1;shape=mxgraph.mockup.containers.anchor;rSize=0;fontSize=17;fontColor=#666666;align=left;" vertex="1" parent="xFg1kfZ2DWBi5ZQq5oqP-2">
                    &#xa;
                    <mxGeometry x="130" y="60" width="250" height="26" as="geometry"/>
                    &#xa;
                </mxCell>
                &#xa;
                <mxCell id="xFg1kfZ2DWBi5ZQq5oqP-5" value="Photo locations" style="text;html=1;points=[];align=left;verticalAlign=top;spacingTop=-4;fontSize=30;fontFamily=Verdana" vertex="1" parent="xFg1kfZ2DWBi5ZQq5oqP-2">
                    &#xa;
                    <mxGeometry x="10" y="110" width="250" height="50" as="geometry"/>
                    &#xa;
                </mxCell>
                &#xa;
                <mxCell id="xFg1kfZ2DWBi5ZQq5oqP-6" value="Search" style="strokeWidth=1;shadow=0;dashed=0;align=center;html=1;shape=mxgraph.mockup.forms.searchBox;strokeColor=#999999;mainText=;strokeColor2=#008cff;fontColor=#666666;fontSize=17;align=left;spacingLeft=3;rounded=0;labelBackgroundColor=none;" vertex="1" parent="xFg1kfZ2DWBi5ZQq5oqP-2">
                    &#xa;
                    <mxGeometry x="820" y="120" width="220" height="30" as="geometry"/>
                    &#xa;
                </mxCell>
                &#xa;
                <mxCell id="xFg1kfZ2DWBi5ZQq5oqP-7" value="" style="verticalLabelPosition=bottom;shadow=0;dashed=0;align=center;html=1;verticalAlign=top;strokeWidth=1;shape=mxgraph.mockup.markup.line;strokeColor=#999999;rounded=0;labelBackgroundColor=none;fillColor=#ffffff;fontFamily=Verdana;fontSize=12;fontColor=#000000;" vertex="1" parent="xFg1kfZ2DWBi5ZQq5oqP-2">
                    &#xa;
                    <mxGeometry y="150" width="1050" height="20" as="geometry"/>
                    &#xa;
                </mxCell>
                &#xa;
                <mxCell id="xFg1kfZ2DWBi5ZQq5oqP-8" value="" style="verticalLabelPosition=bottom;shadow=0;dashed=0;align=center;html=1;verticalAlign=top;strokeWidth=1;shape=mxgraph.mockup.markup.line;strokeColor=#999999;rounded=0;labelBackgroundColor=none;fillColor=#ffffff;fontFamily=Verdana;fontSize=12;fontColor=#000000;" vertex="1" parent="xFg1kfZ2DWBi5ZQq5oqP-2">
                    &#xa;
                    <mxGeometry y="580" width="1050" height="20" as="geometry"/>
                    &#xa;
                </mxCell>
                &#xa;
                <mxCell id="xFg1kfZ2DWBi5ZQq5oqP-9" value="" style="strokeWidth=1;shadow=0;dashed=0;align=center;html=1;shape=mxgraph.mockup.rrect;rSize=10;fillColor=#ffffff;strokeColor=#666666;" vertex="1" parent="xFg1kfZ2DWBi5ZQq5oqP-2">
                    &#xa;
                    <mxGeometry x="410" y="120" width="385" height="30" as="geometry"/>
                    &#xa;
                </mxCell>
                &#xa;
                <mxCell id="xFg1kfZ2DWBi5ZQq5oqP-10" value="Edit" style="strokeColor=inherit;fillColor=inherit;gradientColor=inherit;strokeWidth=1;shadow=0;dashed=0;align=center;html=1;shape=mxgraph.mockup.rrect;rSize=0;fontSize=17;fontColor=#666666;fontStyle=1;resizeHeight=1;" vertex="1" parent="xFg1kfZ2DWBi5ZQq5oqP-9">
                    &#xa;
                    <mxGeometry width="125" height="30" relative="1" as="geometry">
                        &#xa;
                        <mxPoint x="125" as="offset"/>
                        &#xa;
                    </mxGeometry>
                    &#xa;
                </mxCell>
                &#xa;
                <mxCell id="xFg1kfZ2DWBi5ZQq5oqP-11" value="View" style="strokeColor=inherit;fillColor=inherit;gradientColor=inherit;strokeWidth=1;shadow=0;dashed=0;align=center;html=1;shape=mxgraph.mockup.rrect;rSize=0;fontSize=17;fontColor=#666666;fontStyle=1;resizeHeight=1;" vertex="1" parent="xFg1kfZ2DWBi5ZQq5oqP-9">
                    &#xa;
                    <mxGeometry width="125" height="30" relative="1" as="geometry">
                        &#xa;
                        <mxPoint x="250" as="offset"/>
                        &#xa;
                    </mxGeometry>
                    &#xa;
                </mxCell>
                &#xa;
                <mxCell id="xFg1kfZ2DWBi5ZQq5oqP-12" value="Add" style="strokeWidth=1;shadow=0;dashed=0;align=center;html=1;shape=mxgraph.mockup.leftButton;rSize=10;fontSize=17;fontColor=#ffffff;fontStyle=1;fillColor=#008cff;strokeColor=#FFFFFF;resizeHeight=1;" vertex="1" parent="xFg1kfZ2DWBi5ZQq5oqP-9">
                    &#xa;
                    <mxGeometry width="125" height="30" relative="1" as="geometry"/>
                    &#xa;
                </mxCell>
                &#xa;
                <mxCell id="xFg1kfZ2DWBi5ZQq5oqP-13" value="Copyrights Aberdeenshire UK 2020. All Rights Reserved" style="text;html=1;strokeColor=none;fillColor=none;align=center;verticalAlign=middle;whiteSpace=wrap;rounded=0;" vertex="1" parent="xFg1kfZ2DWBi5ZQq5oqP-2">
                    &#xa;
                    <mxGeometry y="590" width="1050" height="30" as="geometry"/>
                    &#xa;
                </mxCell>
                &#xa;
                <mxCell id="xFg1kfZ2DWBi5ZQq5oqP-14" value="Continents" style="strokeWidth=1;shadow=0;dashed=0;align=center;html=1;shape=mxgraph.mockup.forms.comboBox;strokeColor=#999999;fillColor=#ddeeff;align=left;fillColor2=#aaddff;mainText=;fontColor=#666666;fontSize=17;spacingLeft=3;" vertex="1" parent="xFg1kfZ2DWBi5ZQq5oqP-2">
                    &#xa;
                    <mxGeometry x="450" y="230" width="150" height="30" as="geometry"/>
                    &#xa;
                </mxCell>
                &#xa;
                <mxCell id="xFg1kfZ2DWBi5ZQq5oqP-15" value="Country name" style="strokeWidth=1;shadow=0;dashed=0;align=center;html=1;shape=mxgraph.mockup.text.textBox;fontColor=#666666;align=left;fontSize=17;spacingLeft=4;spacingTop=-3;strokeColor=#666666;mainText=;fillColor=#FFFFFF;" vertex="1" parent="xFg1kfZ2DWBi5ZQq5oqP-2">
                    &#xa;
                    <mxGeometry x="450" y="280" width="150" height="30" as="geometry"/>
                    &#xa;
                </mxCell>
                &#xa;
                <mxCell id="xFg1kfZ2DWBi5ZQq5oqP-16" value="Save edits" style="strokeWidth=1;shadow=0;dashed=0;align=center;html=1;shape=mxgraph.mockup.buttons.button;strokeColor=#666666;fontColor=#ffffff;mainText=;buttonStyle=round;fontSize=17;fontStyle=1;fillColor=#008cff;whiteSpace=wrap;" vertex="1" parent="xFg1kfZ2DWBi5ZQq5oqP-2">
                    &#xa;
                    <mxGeometry x="340" y="330" width="200" height="50" as="geometry"/>
                    &#xa;
                </mxCell>
                &#xa;
                <mxCell id="xFg1kfZ2DWBi5ZQq5oqP-17" value="&lt;font style=&quot;font-size: 18px&quot;&gt;Continent:&lt;/font&gt;" style="text;html=1;strokeColor=none;fillColor=none;align=center;verticalAlign=middle;whiteSpace=wrap;rounded=0;" vertex="1" parent="xFg1kfZ2DWBi5ZQq5oqP-2">
                    &#xa;
                    <mxGeometry x="316" y="230" width="134" height="30" as="geometry"/>
                    &#xa;
                </mxCell>
                &#xa;
                <mxCell id="xFg1kfZ2DWBi5ZQq5oqP-18" value="&lt;font style=&quot;font-size: 18px&quot;&gt;Country:&lt;/font&gt;" style="text;html=1;strokeColor=none;fillColor=none;align=center;verticalAlign=middle;whiteSpace=wrap;rounded=0;" vertex="1" parent="xFg1kfZ2DWBi5ZQq5oqP-2">
                    &#xa;
                    <mxGeometry x="316" y="280" width="134" height="30" as="geometry"/>
                    &#xa;
                </mxCell>
                &#xa;
                <mxCell id="4MU3CQIW_D25DBhR2duT-0" value="" style="strokeColor=#999999;verticalLabelPosition=bottom;shadow=0;dashed=0;verticalAlign=top;strokeWidth=2;html=1;shape=mxgraph.mockup.misc.trashcanIcon;fillColor=#FFFFFF;" vertex="1" parent="xFg1kfZ2DWBi5ZQq5oqP-2">
                    &#xa;
                    <mxGeometry x="600" y="330" width="50" height="50" as="geometry"/>
                    &#xa;
                </mxCell>
                &#xa;
                <mxCell id="xFg1kfZ2DWBi5ZQq5oqP-19" value="&lt;font style=&quot;font-size: 72px&quot;&gt;Edit/Delete Country&lt;/font&gt;" style="text;html=1;strokeColor=none;fillColor=none;align=center;verticalAlign=middle;whiteSpace=wrap;rounded=0;" vertex="1" parent="xFg1kfZ2DWBi5ZQq5oqP-1">
                    &#xa;
                    <mxGeometry x="200" y="120" width="720" height="110" as="geometry"/>
                    &#xa;
                </mxCell>
                &#xa;
            </root>
            &#xa;
        </mxGraphModel>
        &#xa;
    </diagram>
    <diagram name="Edit / delete location" id="UDEbCa1EhfAtj6h-oisC">
        &#xa;
        <mxGraphModel dx="1453" dy="717" grid="1" gridSize="10" guides="1" tooltips="1" connect="1" arrows="1" fold="1" page="1" pageScale="1" pageWidth="827" pageHeight="1169" math="0" shadow="0">
            &#xa;
            <root>
                &#xa;
                <mxCell id="hmD0xGThFAbr3jiFH0H0-0"/>
                &#xa;
                <mxCell id="hmD0xGThFAbr3jiFH0H0-1" parent="hmD0xGThFAbr3jiFH0H0-0"/>
                &#xa;
                <mxCell id="hmD0xGThFAbr3jiFH0H0-2" value="" style="strokeWidth=1;shadow=0;dashed=0;align=center;html=1;shape=mxgraph.mockup.containers.browserWindow;rSize=0;strokeColor=#666666;mainText=,;recursiveResize=0;rounded=0;labelBackgroundColor=none;fontFamily=Verdana;fontSize=12" vertex="1" parent="hmD0xGThFAbr3jiFH0H0-1">
                    &#xa;
                    <mxGeometry x="10" y="210" width="1050" height="620" as="geometry"/>
                    &#xa;
                </mxCell>
                &#xa;
                <mxCell id="hmD0xGThFAbr3jiFH0H0-3" value="Page 1" style="strokeWidth=1;shadow=0;dashed=0;align=center;html=1;shape=mxgraph.mockup.containers.anchor;fontSize=17;fontColor=#666666;align=left;" vertex="1" parent="hmD0xGThFAbr3jiFH0H0-2">
                    &#xa;
                    <mxGeometry x="60" y="12" width="110" height="26" as="geometry"/>
                    &#xa;
                </mxCell>
                &#xa;
                <mxCell id="hmD0xGThFAbr3jiFH0H0-4" value="http://localhost:5000/" style="strokeWidth=1;shadow=0;dashed=0;align=center;html=1;shape=mxgraph.mockup.containers.anchor;rSize=0;fontSize=17;fontColor=#666666;align=left;" vertex="1" parent="hmD0xGThFAbr3jiFH0H0-2">
                    &#xa;
                    <mxGeometry x="130" y="60" width="250" height="26" as="geometry"/>
                    &#xa;
                </mxCell>
                &#xa;
                <mxCell id="hmD0xGThFAbr3jiFH0H0-5" value="Photo locations" style="text;html=1;points=[];align=left;verticalAlign=top;spacingTop=-4;fontSize=30;fontFamily=Verdana" vertex="1" parent="hmD0xGThFAbr3jiFH0H0-2">
                    &#xa;
                    <mxGeometry x="10" y="110" width="250" height="50" as="geometry"/>
                    &#xa;
                </mxCell>
                &#xa;
                <mxCell id="hmD0xGThFAbr3jiFH0H0-6" value="Search" style="strokeWidth=1;shadow=0;dashed=0;align=center;html=1;shape=mxgraph.mockup.forms.searchBox;strokeColor=#999999;mainText=;strokeColor2=#008cff;fontColor=#666666;fontSize=17;align=left;spacingLeft=3;rounded=0;labelBackgroundColor=none;" vertex="1" parent="hmD0xGThFAbr3jiFH0H0-2">
                    &#xa;
                    <mxGeometry x="820" y="120" width="220" height="30" as="geometry"/>
                    &#xa;
                </mxCell>
                &#xa;
                <mxCell id="hmD0xGThFAbr3jiFH0H0-7" value="" style="verticalLabelPosition=bottom;shadow=0;dashed=0;align=center;html=1;verticalAlign=top;strokeWidth=1;shape=mxgraph.mockup.markup.line;strokeColor=#999999;rounded=0;labelBackgroundColor=none;fillColor=#ffffff;fontFamily=Verdana;fontSize=12;fontColor=#000000;" vertex="1" parent="hmD0xGThFAbr3jiFH0H0-2">
                    &#xa;
                    <mxGeometry y="150" width="1050" height="20" as="geometry"/>
                    &#xa;
                </mxCell>
                &#xa;
                <mxCell id="hmD0xGThFAbr3jiFH0H0-8" value="" style="verticalLabelPosition=bottom;shadow=0;dashed=0;align=center;html=1;verticalAlign=top;strokeWidth=1;shape=mxgraph.mockup.markup.line;strokeColor=#999999;rounded=0;labelBackgroundColor=none;fillColor=#ffffff;fontFamily=Verdana;fontSize=12;fontColor=#000000;" vertex="1" parent="hmD0xGThFAbr3jiFH0H0-2">
                    &#xa;
                    <mxGeometry y="580" width="1050" height="20" as="geometry"/>
                    &#xa;
                </mxCell>
                &#xa;
                <mxCell id="hmD0xGThFAbr3jiFH0H0-9" value="" style="strokeWidth=1;shadow=0;dashed=0;align=center;html=1;shape=mxgraph.mockup.rrect;rSize=10;fillColor=#ffffff;strokeColor=#666666;" vertex="1" parent="hmD0xGThFAbr3jiFH0H0-2">
                    &#xa;
                    <mxGeometry x="410" y="120" width="385" height="30" as="geometry"/>
                    &#xa;
                </mxCell>
                &#xa;
                <mxCell id="hmD0xGThFAbr3jiFH0H0-10" value="Edit" style="strokeColor=inherit;fillColor=inherit;gradientColor=inherit;strokeWidth=1;shadow=0;dashed=0;align=center;html=1;shape=mxgraph.mockup.rrect;rSize=0;fontSize=17;fontColor=#666666;fontStyle=1;resizeHeight=1;" vertex="1" parent="hmD0xGThFAbr3jiFH0H0-9">
                    &#xa;
                    <mxGeometry width="125" height="30" relative="1" as="geometry">
                        &#xa;
                        <mxPoint x="125" as="offset"/>
                        &#xa;
                    </mxGeometry>
                    &#xa;
                </mxCell>
                &#xa;
                <mxCell id="hmD0xGThFAbr3jiFH0H0-11" value="View" style="strokeColor=inherit;fillColor=inherit;gradientColor=inherit;strokeWidth=1;shadow=0;dashed=0;align=center;html=1;shape=mxgraph.mockup.rrect;rSize=0;fontSize=17;fontColor=#666666;fontStyle=1;resizeHeight=1;" vertex="1" parent="hmD0xGThFAbr3jiFH0H0-9">
                    &#xa;
                    <mxGeometry width="125" height="30" relative="1" as="geometry">
                        &#xa;
                        <mxPoint x="250" as="offset"/>
                        &#xa;
                    </mxGeometry>
                    &#xa;
                </mxCell>
                &#xa;
                <mxCell id="hmD0xGThFAbr3jiFH0H0-12" value="Add" style="strokeWidth=1;shadow=0;dashed=0;align=center;html=1;shape=mxgraph.mockup.leftButton;rSize=10;fontSize=17;fontColor=#ffffff;fontStyle=1;fillColor=#008cff;strokeColor=#FFFFFF;resizeHeight=1;" vertex="1" parent="hmD0xGThFAbr3jiFH0H0-9">
                    &#xa;
                    <mxGeometry width="125" height="30" relative="1" as="geometry"/>
                    &#xa;
                </mxCell>
                &#xa;
                <mxCell id="hmD0xGThFAbr3jiFH0H0-13" value="Copyrights Aberdeenshire UK 2020. All Rights Reserved" style="text;html=1;strokeColor=none;fillColor=none;align=center;verticalAlign=middle;whiteSpace=wrap;rounded=0;" vertex="1" parent="hmD0xGThFAbr3jiFH0H0-2">
                    &#xa;
                    <mxGeometry y="590" width="1050" height="30" as="geometry"/>
                    &#xa;
                </mxCell>
                &#xa;
                <mxCell id="hmD0xGThFAbr3jiFH0H0-14" value="Country list" style="strokeWidth=1;shadow=0;dashed=0;align=center;html=1;shape=mxgraph.mockup.forms.comboBox;strokeColor=#999999;fillColor=#ddeeff;align=left;fillColor2=#aaddff;mainText=;fontColor=#666666;fontSize=17;spacingLeft=3;" vertex="1" parent="hmD0xGThFAbr3jiFH0H0-2">
                    &#xa;
                    <mxGeometry x="450" y="230" width="150" height="30" as="geometry"/>
                    &#xa;
                </mxCell>
                &#xa;
                <mxCell id="hmD0xGThFAbr3jiFH0H0-15" value="Location name" style="strokeWidth=1;shadow=0;dashed=0;align=center;html=1;shape=mxgraph.mockup.text.textBox;fontColor=#666666;align=left;fontSize=17;spacingLeft=4;spacingTop=-3;strokeColor=#666666;mainText=;fillColor=#FFFFFF;" vertex="1" parent="hmD0xGThFAbr3jiFH0H0-2">
                    &#xa;
                    <mxGeometry x="450" y="270" width="150" height="30" as="geometry"/>
                    &#xa;
                </mxCell>
                &#xa;
                <mxCell id="hmD0xGThFAbr3jiFH0H0-17" value="&lt;font style=&quot;font-size: 18px&quot;&gt;Country:&lt;/font&gt;" style="text;html=1;strokeColor=none;fillColor=none;align=center;verticalAlign=middle;whiteSpace=wrap;rounded=0;" vertex="1" parent="hmD0xGThFAbr3jiFH0H0-2">
                    &#xa;
                    <mxGeometry x="316" y="230" width="134" height="30" as="geometry"/>
                    &#xa;
                </mxCell>
                &#xa;
                <mxCell id="hmD0xGThFAbr3jiFH0H0-18" value="&lt;font style=&quot;font-size: 18px&quot;&gt;Location:&lt;/font&gt;" style="text;html=1;strokeColor=none;fillColor=none;align=center;verticalAlign=middle;whiteSpace=wrap;rounded=0;" vertex="1" parent="hmD0xGThFAbr3jiFH0H0-2">
                    &#xa;
                    <mxGeometry x="316" y="270" width="134" height="30" as="geometry"/>
                    &#xa;
                </mxCell>
                &#xa;
                <mxCell id="hmD0xGThFAbr3jiFH0H0-19" value="Lorem ipsum dolor sit amet, consectetur adipisicing elit, sed do eiusmod tempor incididunt ut labore et dolore magna aliqua. Ut enim ad minim veniam, quis nostrud exercitation ullamco laboris nisi ut aliquip ex ea commodo consequat. Duis aute irure dolor in reprehenderit in voluptate velit esse cillum dolore eu fugiat nulla pariatur. Excepteur sint occaecat cupidatat non proident, sunt in culpa&amp;nbsp;" style="text;spacingTop=-5;whiteSpace=wrap;html=1;align=left;fontSize=12;fontFamily=Helvetica;fillColor=none;strokeColor=none;" vertex="1" parent="hmD0xGThFAbr3jiFH0H0-2">
                    &#xa;
                    <mxGeometry x="330" y="374.5" width="270" height="130" as="geometry"/>
                    &#xa;
                </mxCell>
                &#xa;
                <mxCell id="hmD0xGThFAbr3jiFH0H0-20" value="&lt;font style=&quot;font-size: 18px&quot;&gt;Brief:&lt;/font&gt;" style="text;html=1;strokeColor=none;fillColor=none;align=center;verticalAlign=middle;whiteSpace=wrap;rounded=0;" vertex="1" parent="hmD0xGThFAbr3jiFH0H0-2">
                    &#xa;
                    <mxGeometry x="330" y="345" width="120" height="30" as="geometry"/>
                    &#xa;
                </mxCell>
                &#xa;
                <mxCell id="hmD0xGThFAbr3jiFH0H0-21" value="Edit/delete location" style="text;html=1;points=[];align=left;verticalAlign=top;spacingTop=-4;fontSize=30;fontFamily=Verdana" vertex="1" parent="hmD0xGThFAbr3jiFH0H0-2">
                    &#xa;
                    <mxGeometry x="350" y="170" width="250" height="50" as="geometry"/>
                    &#xa;
                </mxCell>
                &#xa;
                <mxCell id="O4aLzMgdHdCNpK3bHiRY-0" value="No" style="strokeWidth=1;shadow=0;dashed=0;align=center;html=1;shape=mxgraph.mockup.buttons.onOffButton;gradientColor=none;strokeColor=#999999;buttonState=on;fillColor2=#008cff;fontColor=#ffffff;fontSize=17;mainText=;spacingRight=40;fontStyle=1;" vertex="1" parent="hmD0xGThFAbr3jiFH0H0-2">
                    &#xa;
                    <mxGeometry x="450" y="315" width="150" height="30" as="geometry"/>
                    &#xa;
                </mxCell>
                &#xa;
                <mxCell id="O4aLzMgdHdCNpK3bHiRY-1" value="&lt;font style=&quot;font-size: 18px&quot;&gt;Visited:&lt;/font&gt;" style="text;html=1;strokeColor=none;fillColor=none;align=center;verticalAlign=middle;whiteSpace=wrap;rounded=0;" vertex="1" parent="hmD0xGThFAbr3jiFH0H0-2">
                    &#xa;
                    <mxGeometry x="316" y="315" width="134" height="30" as="geometry"/>
                    &#xa;
                </mxCell>
                &#xa;
                <mxCell id="ju7gEetUn63d94FeiSDW-0" value="Save edits" style="strokeWidth=1;shadow=0;dashed=0;align=center;html=1;shape=mxgraph.mockup.buttons.button;strokeColor=#666666;fontColor=#ffffff;mainText=;buttonStyle=round;fontSize=17;fontStyle=1;fillColor=#008cff;whiteSpace=wrap;" vertex="1" parent="hmD0xGThFAbr3jiFH0H0-2">
                    &#xa;
                    <mxGeometry x="330" y="504.5" width="200" height="50" as="geometry"/>
                    &#xa;
                </mxCell>
                &#xa;
                <mxCell id="ju7gEetUn63d94FeiSDW-1" value="" style="strokeColor=#999999;verticalLabelPosition=bottom;shadow=0;dashed=0;verticalAlign=top;strokeWidth=2;html=1;shape=mxgraph.mockup.misc.trashcanIcon;fillColor=#FFFFFF;" vertex="1" parent="hmD0xGThFAbr3jiFH0H0-2">
                    &#xa;
                    <mxGeometry x="590" y="504.5" width="50" height="50" as="geometry"/>
                    &#xa;
                </mxCell>
                &#xa;
                <mxCell id="N_wKISKrja1jIVInExu6-0" value="" style="verticalLabelPosition=bottom;shadow=0;dashed=0;align=center;html=1;verticalAlign=top;strokeWidth=1;shape=mxgraph.mockup.graphics.simpleIcon;strokeColor=#999999;fillColor=#FFFFFF;" vertex="1" parent="hmD0xGThFAbr3jiFH0H0-2">
                    &#xa;
                    <mxGeometry x="670" y="350" width="130" height="110" as="geometry"/>
                    &#xa;
                </mxCell>
                &#xa;
                <mxCell id="AsbQLYDyAIwMW962eYRU-0" value="Add photo" style="strokeWidth=1;shadow=0;dashed=0;align=center;html=1;shape=mxgraph.mockup.buttons.button;strokeColor=#666666;fontColor=#ffffff;mainText=;buttonStyle=round;fontSize=17;fontStyle=1;fillColor=#008cff;whiteSpace=wrap;" vertex="1" parent="hmD0xGThFAbr3jiFH0H0-2">
                    &#xa;
                    <mxGeometry x="685" y="380" width="100" height="50" as="geometry"/>
                    &#xa;
                </mxCell>
                &#xa;
                <mxCell id="SsTjRJDFFcZ5WyK-Eu5Z-2" value="Photo 1" style="strokeWidth=1;shadow=0;dashed=0;align=center;html=1;shape=mxgraph.mockup.text.textBox;fontColor=#666666;align=left;fontSize=17;spacingLeft=4;spacingTop=-3;strokeColor=#666666;mainText=;fillColor=#FFFFFF;" vertex="1" parent="hmD0xGThFAbr3jiFH0H0-2">
                    &#xa;
                    <mxGeometry x="670" y="220" width="130" height="110" as="geometry"/>
                    &#xa;
                </mxCell>
                &#xa;
                <mxCell id="SsTjRJDFFcZ5WyK-Eu5Z-29" value="Photo 2" style="strokeWidth=1;shadow=0;dashed=0;align=center;html=1;shape=mxgraph.mockup.text.textBox;fontColor=#666666;align=left;fontSize=17;spacingLeft=4;spacingTop=-3;strokeColor=#666666;mainText=;fillColor=#FFFFFF;" vertex="1" parent="hmD0xGThFAbr3jiFH0H0-2">
                    &#xa;
                    <mxGeometry x="820" y="220" width="130" height="110" as="geometry"/>
                    &#xa;
                </mxCell>
                &#xa;
                <mxCell id="hmD0xGThFAbr3jiFH0H0-22" value="&lt;font style=&quot;font-size: 72px&quot;&gt;Edit/Delete Location&lt;/font&gt;" style="text;html=1;strokeColor=none;fillColor=none;align=center;verticalAlign=middle;whiteSpace=wrap;rounded=0;" vertex="1" parent="hmD0xGThFAbr3jiFH0H0-1">
                    &#xa;
                    <mxGeometry x="200" y="120" width="720" height="110" as="geometry"/>
                    &#xa;
                </mxCell>
                &#xa;
            </root>
            &#xa;
        </mxGraphModel>
        &#xa;
    </diagram>
    <diagram name="Visited and not locations" id="VlmEDjZEZ4BYq048L2od">
        &#xa;
        <mxGraphModel dx="1453" dy="717" grid="1" gridSize="10" guides="1" tooltips="1" connect="1" arrows="1" fold="1" page="1" pageScale="1" pageWidth="1100" pageHeight="850" background="#ffffff" math="0" shadow="0">
            &#xa;
            <root>
                &#xa;
                <mxCell id="KWSY-Ed1KMJryxJtZo-O-0"/>
                &#xa;
                <mxCell id="KWSY-Ed1KMJryxJtZo-O-1" parent="KWSY-Ed1KMJryxJtZo-O-0"/>
                &#xa;
                <mxCell id="KWSY-Ed1KMJryxJtZo-O-2" value="" style="strokeWidth=1;shadow=0;dashed=0;align=center;html=1;shape=mxgraph.mockup.containers.browserWindow;rSize=0;strokeColor=#666666;mainText=,;recursiveResize=0;rounded=0;labelBackgroundColor=none;fontFamily=Verdana;fontSize=12" vertex="1" parent="KWSY-Ed1KMJryxJtZo-O-1">
                    &#xa;
                    <mxGeometry x="10" y="200" width="1050" height="620" as="geometry"/>
                    &#xa;
                </mxCell>
                &#xa;
                <mxCell id="KWSY-Ed1KMJryxJtZo-O-3" value="Page 1" style="strokeWidth=1;shadow=0;dashed=0;align=center;html=1;shape=mxgraph.mockup.containers.anchor;fontSize=17;fontColor=#666666;align=left;" vertex="1" parent="KWSY-Ed1KMJryxJtZo-O-2">
                    &#xa;
                    <mxGeometry x="60" y="12" width="110" height="26" as="geometry"/>
                    &#xa;
                </mxCell>
                &#xa;
                <mxCell id="KWSY-Ed1KMJryxJtZo-O-4" value="http://localhost:5000/" style="strokeWidth=1;shadow=0;dashed=0;align=center;html=1;shape=mxgraph.mockup.containers.anchor;rSize=0;fontSize=17;fontColor=#666666;align=left;" vertex="1" parent="KWSY-Ed1KMJryxJtZo-O-2">
                    &#xa;
                    <mxGeometry x="130" y="60" width="250" height="26" as="geometry"/>
                    &#xa;
                </mxCell>
                &#xa;
                <mxCell id="KWSY-Ed1KMJryxJtZo-O-5" value="Photo locations" style="text;html=1;points=[];align=left;verticalAlign=top;spacingTop=-4;fontSize=30;fontFamily=Verdana" vertex="1" parent="KWSY-Ed1KMJryxJtZo-O-2">
                    &#xa;
                    <mxGeometry x="10" y="110" width="250" height="50" as="geometry"/>
                    &#xa;
                </mxCell>
                &#xa;
                <mxCell id="KWSY-Ed1KMJryxJtZo-O-6" value="Search" style="strokeWidth=1;shadow=0;dashed=0;align=center;html=1;shape=mxgraph.mockup.forms.searchBox;strokeColor=#999999;mainText=;strokeColor2=#008cff;fontColor=#666666;fontSize=17;align=left;spacingLeft=3;rounded=0;labelBackgroundColor=none;" vertex="1" parent="KWSY-Ed1KMJryxJtZo-O-2">
                    &#xa;
                    <mxGeometry x="820" y="120" width="220" height="30" as="geometry"/>
                    &#xa;
                </mxCell>
                &#xa;
                <mxCell id="KWSY-Ed1KMJryxJtZo-O-7" value="" style="verticalLabelPosition=bottom;shadow=0;dashed=0;align=center;html=1;verticalAlign=top;strokeWidth=1;shape=mxgraph.mockup.markup.line;strokeColor=#999999;rounded=0;labelBackgroundColor=none;fillColor=#ffffff;fontFamily=Verdana;fontSize=12;fontColor=#000000;" vertex="1" parent="KWSY-Ed1KMJryxJtZo-O-2">
                    &#xa;
                    <mxGeometry y="150" width="1050" height="20" as="geometry"/>
                    &#xa;
                </mxCell>
                &#xa;
                <mxCell id="KWSY-Ed1KMJryxJtZo-O-8" value="" style="verticalLabelPosition=bottom;shadow=0;dashed=0;align=center;html=1;verticalAlign=top;strokeWidth=1;shape=mxgraph.mockup.markup.line;strokeColor=#999999;rounded=0;labelBackgroundColor=none;fillColor=#ffffff;fontFamily=Verdana;fontSize=12;fontColor=#000000;" vertex="1" parent="KWSY-Ed1KMJryxJtZo-O-2">
                    &#xa;
                    <mxGeometry y="580" width="1050" height="20" as="geometry"/>
                    &#xa;
                </mxCell>
                &#xa;
                <mxCell id="KWSY-Ed1KMJryxJtZo-O-9" value="" style="strokeWidth=1;shadow=0;dashed=0;align=center;html=1;shape=mxgraph.mockup.rrect;rSize=10;fillColor=#ffffff;strokeColor=#666666;" vertex="1" parent="KWSY-Ed1KMJryxJtZo-O-2">
                    &#xa;
                    <mxGeometry x="410" y="120" width="385" height="30" as="geometry"/>
                    &#xa;
                </mxCell>
                &#xa;
                <mxCell id="KWSY-Ed1KMJryxJtZo-O-10" value="Edit" style="strokeColor=inherit;fillColor=inherit;gradientColor=inherit;strokeWidth=1;shadow=0;dashed=0;align=center;html=1;shape=mxgraph.mockup.rrect;rSize=0;fontSize=17;fontColor=#666666;fontStyle=1;resizeHeight=1;" vertex="1" parent="KWSY-Ed1KMJryxJtZo-O-9">
                    &#xa;
                    <mxGeometry width="125" height="30" relative="1" as="geometry">
                        &#xa;
                        <mxPoint x="125" as="offset"/>
                        &#xa;
                    </mxGeometry>
                    &#xa;
                </mxCell>
                &#xa;
                <mxCell id="KWSY-Ed1KMJryxJtZo-O-11" value="View" style="strokeColor=inherit;fillColor=inherit;gradientColor=inherit;strokeWidth=1;shadow=0;dashed=0;align=center;html=1;shape=mxgraph.mockup.rrect;rSize=0;fontSize=17;fontColor=#666666;fontStyle=1;resizeHeight=1;" vertex="1" parent="KWSY-Ed1KMJryxJtZo-O-9">
                    &#xa;
                    <mxGeometry width="125" height="30" relative="1" as="geometry">
                        &#xa;
                        <mxPoint x="250" as="offset"/>
                        &#xa;
                    </mxGeometry>
                    &#xa;
                </mxCell>
                &#xa;
                <mxCell id="KWSY-Ed1KMJryxJtZo-O-12" value="Add" style="strokeWidth=1;shadow=0;dashed=0;align=center;html=1;shape=mxgraph.mockup.leftButton;rSize=10;fontSize=17;fontColor=#ffffff;fontStyle=1;fillColor=#008cff;strokeColor=#FFFFFF;resizeHeight=1;" vertex="1" parent="KWSY-Ed1KMJryxJtZo-O-9">
                    &#xa;
                    <mxGeometry width="125" height="30" relative="1" as="geometry"/>
                    &#xa;
                </mxCell>
                &#xa;
                <mxCell id="KWSY-Ed1KMJryxJtZo-O-13" value="" style="shape=table;html=1;whiteSpace=wrap;startSize=0;container=1;collapsible=0;childLayout=tableLayout;" vertex="1" parent="KWSY-Ed1KMJryxJtZo-O-2">
                    &#xa;
                    <mxGeometry x="30" y="200" width="990" height="390" as="geometry"/>
                    &#xa;
                </mxCell>
                &#xa;
                <mxCell id="KWSY-Ed1KMJryxJtZo-O-14" value="" style="shape=partialRectangle;html=1;whiteSpace=wrap;collapsible=0;dropTarget=0;pointerEvents=0;fillColor=none;top=0;left=0;bottom=0;right=0;points=[[0,0.5],[1,0.5]];portConstraint=eastwest;" vertex="1" parent="KWSY-Ed1KMJryxJtZo-O-13">
                    &#xa;
                    <mxGeometry width="990" height="130" as="geometry"/>
                    &#xa;
                </mxCell>
                &#xa;
                <mxCell id="KWSY-Ed1KMJryxJtZo-O-15" value="Location 1&lt;br&gt;Country: &amp;lt;name&amp;gt;&lt;br&gt;Continent: &amp;lt;name&amp;gt;&lt;br&gt;&lt;br&gt;Background: photo from location (if exists)" style="shape=partialRectangle;html=1;whiteSpace=wrap;connectable=0;fillColor=none;top=0;left=0;bottom=0;right=0;overflow=hidden;" vertex="1" parent="KWSY-Ed1KMJryxJtZo-O-14">
                    &#xa;
                    <mxGeometry width="330" height="130" as="geometry"/>
                    &#xa;
                </mxCell>
                &#xa;
                <mxCell id="KWSY-Ed1KMJryxJtZo-O-16" value="Location 2&lt;br&gt;Country: &amp;lt;name&amp;gt;&lt;br&gt;Continent: &amp;lt;name&amp;gt;&lt;br&gt;&lt;br&gt;Background: photo from location (if exists)" style="shape=partialRectangle;html=1;whiteSpace=wrap;connectable=0;fillColor=none;top=0;left=0;bottom=0;right=0;overflow=hidden;" vertex="1" parent="KWSY-Ed1KMJryxJtZo-O-14">
                    &#xa;
                    <mxGeometry x="330" width="330" height="130" as="geometry"/>
                    &#xa;
                </mxCell>
                &#xa;
                <mxCell id="KWSY-Ed1KMJryxJtZo-O-17" value="&lt;span&gt;Location 3&lt;/span&gt;&lt;br&gt;&lt;span&gt;Country: &amp;lt;name&amp;gt;&lt;/span&gt;&lt;br&gt;&lt;span&gt;Continent: &amp;lt;name&amp;gt;&lt;/span&gt;&lt;br&gt;&lt;br&gt;&lt;span&gt;Background: photo from location (if exists)&lt;/span&gt;" style="shape=partialRectangle;html=1;whiteSpace=wrap;connectable=0;fillColor=none;top=0;left=0;bottom=0;right=0;overflow=hidden;" vertex="1" parent="KWSY-Ed1KMJryxJtZo-O-14">
                    &#xa;
                    <mxGeometry x="660" width="330" height="130" as="geometry"/>
                    &#xa;
                </mxCell>
                &#xa;
                <mxCell id="KWSY-Ed1KMJryxJtZo-O-18" value="" style="shape=partialRectangle;html=1;whiteSpace=wrap;collapsible=0;dropTarget=0;pointerEvents=0;fillColor=none;top=0;left=0;bottom=0;right=0;points=[[0,0.5],[1,0.5]];portConstraint=eastwest;" vertex="1" parent="KWSY-Ed1KMJryxJtZo-O-13">
                    &#xa;
                    <mxGeometry y="130" width="990" height="130" as="geometry"/>
                    &#xa;
                </mxCell>
                &#xa;
                <mxCell id="KWSY-Ed1KMJryxJtZo-O-19" value="&lt;span&gt;Location 4&amp;nbsp;&lt;/span&gt;&lt;br&gt;&lt;span&gt;Country: &amp;lt;name&amp;gt;&lt;/span&gt;&lt;br&gt;&lt;span&gt;Continent: &amp;lt;name&amp;gt;&lt;/span&gt;&lt;br&gt;&lt;br&gt;&lt;span&gt;Background: photo from location (if exists)&lt;/span&gt;" style="shape=partialRectangle;html=1;whiteSpace=wrap;connectable=0;fillColor=none;top=0;left=0;bottom=0;right=0;overflow=hidden;" vertex="1" parent="KWSY-Ed1KMJryxJtZo-O-18">
                    &#xa;
                    <mxGeometry width="330" height="130" as="geometry"/>
                    &#xa;
                </mxCell>
                &#xa;
                <mxCell id="KWSY-Ed1KMJryxJtZo-O-20" value="&lt;span&gt;Location 5&lt;/span&gt;&lt;br&gt;&lt;span&gt;Country: &amp;lt;name&amp;gt;&lt;/span&gt;&lt;br&gt;&lt;span&gt;Continent: &amp;lt;name&amp;gt;&lt;/span&gt;&lt;br&gt;&lt;br&gt;&lt;span&gt;Background: photo from location (if exists)&lt;/span&gt;" style="shape=partialRectangle;html=1;whiteSpace=wrap;connectable=0;fillColor=none;top=0;left=0;bottom=0;right=0;overflow=hidden;" vertex="1" parent="KWSY-Ed1KMJryxJtZo-O-18">
                    &#xa;
                    <mxGeometry x="330" width="330" height="130" as="geometry"/>
                    &#xa;
                </mxCell>
                &#xa;
                <mxCell id="KWSY-Ed1KMJryxJtZo-O-21" value="&lt;span&gt;Location 6&lt;/span&gt;&lt;br&gt;&lt;span&gt;Country: &amp;lt;name&amp;gt;&lt;/span&gt;&lt;br&gt;&lt;span&gt;Continent: &amp;lt;name&amp;gt;&lt;/span&gt;&lt;br&gt;&lt;br&gt;&lt;span&gt;Background: photo from location (if exists)&lt;/span&gt;" style="shape=partialRectangle;html=1;whiteSpace=wrap;connectable=0;fillColor=none;top=0;left=0;bottom=0;right=0;overflow=hidden;" vertex="1" parent="KWSY-Ed1KMJryxJtZo-O-18">
                    &#xa;
                    <mxGeometry x="660" width="330" height="130" as="geometry"/>
                    &#xa;
                </mxCell>
                &#xa;
                <mxCell id="KWSY-Ed1KMJryxJtZo-O-22" value="" style="shape=partialRectangle;html=1;whiteSpace=wrap;collapsible=0;dropTarget=0;pointerEvents=0;fillColor=none;top=0;left=0;bottom=0;right=0;points=[[0,0.5],[1,0.5]];portConstraint=eastwest;" vertex="1" parent="KWSY-Ed1KMJryxJtZo-O-13">
                    &#xa;
                    <mxGeometry y="260" width="990" height="130" as="geometry"/>
                    &#xa;
                </mxCell>
                &#xa;
                <mxCell id="KWSY-Ed1KMJryxJtZo-O-23" value="&lt;span&gt;Location 7&lt;/span&gt;&lt;br&gt;&lt;span&gt;Country: &amp;lt;name&amp;gt;&lt;/span&gt;&lt;br&gt;&lt;span&gt;Continent: &amp;lt;name&amp;gt;&lt;/span&gt;&lt;br&gt;&lt;br&gt;&lt;span&gt;Background: photo from location (if exists)&lt;/span&gt;" style="shape=partialRectangle;html=1;whiteSpace=wrap;connectable=0;fillColor=none;top=0;left=0;bottom=0;right=0;overflow=hidden;" vertex="1" parent="KWSY-Ed1KMJryxJtZo-O-22">
                    &#xa;
                    <mxGeometry width="330" height="130" as="geometry"/>
                    &#xa;
                </mxCell>
                &#xa;
                <mxCell id="KWSY-Ed1KMJryxJtZo-O-24" value="&lt;span&gt;Location 8&lt;/span&gt;&lt;br&gt;&lt;span&gt;Country: &amp;lt;name&amp;gt;&lt;/span&gt;&lt;br&gt;&lt;span&gt;Continent: &amp;lt;name&amp;gt;&lt;/span&gt;&lt;br&gt;&lt;br&gt;&lt;span&gt;Background: photo from location (if exists)&lt;/span&gt;" style="shape=partialRectangle;html=1;whiteSpace=wrap;connectable=0;fillColor=none;top=0;left=0;bottom=0;right=0;overflow=hidden;" vertex="1" parent="KWSY-Ed1KMJryxJtZo-O-22">
                    &#xa;
                    <mxGeometry x="330" width="330" height="130" as="geometry"/>
                    &#xa;
                </mxCell>
                &#xa;
                <mxCell id="KWSY-Ed1KMJryxJtZo-O-25" value="&lt;span&gt;Location 9&lt;/span&gt;&lt;br&gt;&lt;span&gt;Country: &amp;lt;name&amp;gt;&lt;/span&gt;&lt;br&gt;&lt;span&gt;Continent: &amp;lt;name&amp;gt;&lt;/span&gt;&lt;br&gt;&lt;br&gt;&lt;span&gt;Background: photo from location (if exists)&lt;/span&gt;" style="shape=partialRectangle;html=1;whiteSpace=wrap;connectable=0;fillColor=none;top=0;left=0;bottom=0;right=0;overflow=hidden;" vertex="1" parent="KWSY-Ed1KMJryxJtZo-O-22">
                    &#xa;
                    <mxGeometry x="660" width="330" height="130" as="geometry"/>
                    &#xa;
                </mxCell>
                &#xa;
                <mxCell id="KWSY-Ed1KMJryxJtZo-O-26" value="Copyrights Aberdeenshire UK 2020. All Rights Reserved" style="text;html=1;strokeColor=none;fillColor=none;align=center;verticalAlign=middle;whiteSpace=wrap;rounded=0;" vertex="1" parent="KWSY-Ed1KMJryxJtZo-O-2">
                    &#xa;
                    <mxGeometry y="590" width="1050" height="30" as="geometry"/>
                    &#xa;
                </mxCell>
                &#xa;
                <mxCell id="cto8CFZ8aukZhWP9eITV-0" value="Visited (or not visited) locations" style="text;html=1;points=[];align=left;verticalAlign=top;spacingTop=-4;fontSize=30;fontFamily=Verdana" vertex="1" parent="KWSY-Ed1KMJryxJtZo-O-2">
                    &#xa;
                    <mxGeometry x="250" y="160" width="480" height="50" as="geometry"/>
                    &#xa;
                </mxCell>
                &#xa;
                <mxCell id="KWSY-Ed1KMJryxJtZo-O-27" value="&lt;font style=&quot;font-size: 72px&quot;&gt;List of visited / !visited locations&lt;/font&gt;" style="text;html=1;strokeColor=none;fillColor=none;align=center;verticalAlign=middle;whiteSpace=wrap;rounded=0;" vertex="1" parent="KWSY-Ed1KMJryxJtZo-O-1">
                    &#xa;
                    <mxGeometry x="10" y="90" width="1050" height="110" as="geometry"/>
                    &#xa;
                </mxCell>
                &#xa;
            </root>
            &#xa;
        </mxGraphModel>
        &#xa;
    </diagram>
</mxfile>